<?xml version="1.0" standalone="no"?>
<!DOCTYPE svg PUBLIC "-//W3C//DTD SVG 1.1//EN" "http://www.w3.org/Graphics/SVG/1.1/DTD/svg11.dtd">
<svg xmlns="http://www.w3.org/2000/svg">
<metadata>Generated by Fontastic.me</metadata>
<defs>
<font id="talenta-font" horiz-adv-x="512">
<font-face font-family="talenta-font" units-per-em="512" ascent="480" descent="-32"/>
<missing-glyph horiz-adv-x="512" />

<glyph glyph-name="kalkulator-1" unicode="&#98;" d="M195 206l-54 0 0 55 54 0z m-41 13l29 0 0 29-29 0z m118-13l-55 0 0 55 55 0z m-42 13l29 0 0 29-29 0z m118-13l-55 0 0 55 55 0z m-42 13l29 0 0 29-29 0z m-111-87l-54 0 0 54 54 0z m-41 12l29 0 0 29-29 0z m118-12l-55 0 0 54 55 0z m-42 12l29 0 0 29-29 0z m118-12l-55 0 0 54 55 0z m-42 12l29 0 0 29-29 0z m85-61c0-6-5-11-11-11l-271 0c-6 0-11 5-11 11l0 337c0 6 5 11 11 11l141 0c1 4 2 9 4 13l-145 0c-13 0-24-11-24-24l0-337c0-13 11-24 24-24l271 0c13 0 24 11 24 24l0 212c-4-2-9-4-13-5z m-119 243l-118 0 0 49 94 0c-1 4-2 8-2 13l-105 0 0-74 143 0c-4 4-8 8-12 12z m87 150c42 0 76-34 76-76 0-26-12-48-31-62l0-16c26 16 44 45 44 78 0 49-40 89-89 89-33 0-62-18-77-45l15 0c14 19 37 32 62 32z m-88-88l13 0c-1 4-1 8-1 12 0 11 2 21 7 31l-14 0c-4-10-6-20-6-31 0-4 0-8 1-12z m37-62l27 0 0 1c-23 8-40 26-48 48l-14 0c6-20 19-37 35-49z m51-3c-4 0-8 1-11 1l0-10-12 0c7-2 15-4 23-4 11 0 22 3 32 6l0 14c-10-4-21-7-32-7z m32 7l0-14c4 2 9 4 13 6l0 16c-4-3-9-6-13-8z m-101 101c2 5 4 9 7 13l-15 0c-2-4-5-8-6-13z m-3-56c-1 4-3 8-3 13l-13 0c0-5 1-9 2-13z m48-49l-27 0c9-5 18-10 28-12l12 0 0 10c-5 1-9 2-13 3z m-2 74l4 0c1 0 2 0 3 0 0-1 1-1 1-2l11-17c1-1 1-1 2-1 1-1 1-1 2-1l9 0-13 20c-1 1-2 2-4 3 2 1 4 2 6 2 1 1 2 3 3 4 1 1 2 3 3 4 0 2 0 4 0 6 0 2 0 4-1 6-1 2-2 3-3 5-2 1-3 1-4 2l-29 0 0-43 10 0z m0 25l7 0c3 0 6 0 8-2 2-1 3-3 3-6 0-2-1-3-1-4-1-1-1-2-2-3-1-1-2-1-4-2-1 0-3-1-5-1l-6 0z m16 7c-3 1-6 1-9 1l-17 0 0-2 29 0c-1 0-2 1-3 1z m-26-44l10 0 0-9-10 0z m82 3c1 2 2 5 2 8 0 3-1 5-1 8-1 2-2 3-2 4l0-24c0 1 1 2 1 4z m-25 21l-1 4c0 0 0 1-1 1 0 0-1 0-1 0l-6 0 0-51 9 0 0 16c2-1 3-2 5-3 1 0 3-1 5-1 0 0 1 0 1 0l0 8c-1 0-2-1-3-1-2 0-3 1-4 1-1 1-2 2-4 3l0 17c2 2 3 3 4 4 2 0 3 1 5 1 1 0 1 0 2 0l0 7c-2 0-4-1-6-2-2-1-3-2-5-4z m12-2c1 0 2-1 3-2 1-1 1-2 1-4 1-1 1-3 1-5 0-3 0-5-1-6 0-2-1-3-1-4-1-1-2-2-3-3-1 0-1 0-1 0l0-8c2 1 4 1 6 2 2 1 4 2 5 4 1 1 1 2 2 3l0 24c-1 1-1 2-1 2-2 2-3 3-5 4-2 1-4 1-6 1 0 0-1 0-1 0l0-7c0 0 1-1 1-1z"/>
<glyph glyph-name="profil" unicode="&#99;" d="M442 266l-371 0c-13 0-24 10-24 23l0 85c0 13 11 23 24 23l371 0c13 0 23-10 23-23l0-85c0-13-10-23-23-23z m-371 118c-6 0-11-5-11-10l0-85c0-6 5-10 11-10l371 0c6 0 11 4 11 10l0 85c0 5-5 10-11 10z m371-274l-371 0c-13 0-24 11-24 24l0 84c0 13 11 24 24 24l371 0c13 0 23-11 23-24l0-84c0-13-10-24-23-24z m-371 119c-6 0-11-5-11-11l0-84c0-6 5-11 11-11l371 0c6 0 11 5 11 11l0 84c0 6-5 11-11 11z m69 102c0-12-10-22-22-22-12 0-22 10-22 22 0 13 10 23 22 23 12 0 22-10 22-23z m-22-28c-16 0-29 13-29 28 0 16 13 29 29 29 16 0 28-13 28-29 0-15-12-28-28-28z m0 44c-9 0-16-7-16-16 0-8 7-15 16-15 9 0 16 7 16 15 0 9-7 16-16 16z m62 6l227 0 0-13-227 0z m0-30l143 0 0-13-143 0z m-40-147c0-12-10-22-22-22-12 0-22 10-22 22 0 12 10 22 22 22 12 0 22-10 22-22z m-22-29c-16 0-29 13-29 29 0 16 13 28 29 28 16 0 28-12 28-28 0-16-12-29-28-29z m0 45c-9 0-16-7-16-16 0-9 7-16 16-16 9 0 16 7 16 16 0 9-7 16-16 16z m62 5l227 0 0-12-227 0z m0-30l143 0 0-13-143 0z"/>
<glyph glyph-name="kalender-2" unicode="&#100;" d="M453 437l-67 0 0-13 67 0c6 0 12-5 12-12l0-54 10 0 0-13-10 0 0-247c0-6-6-12-12-12l-395 0c-6 0-11 6-11 12l0 247-2 0 0 13 2 0 0 54c0 7 5 12 11 12l76 0 0 13-76 0c-13 0-24-11-24-25l0-314c0-13 11-24 24-24l395 0c13 0 25 11 25 24l0 314c0 14-12 25-25 25z m-276 0l166 0 0-13-166 0z m181 26l13 0 0-7-13 0z m0-39l13 0 0-26-13 0z m0 32l13 0 0-19-13 0z m0-19l13 0 0-13-13 0z m-209 26l13 0 0-7-13 0z m0-7l13 0 0-19-13 0z m0-32l13 0 0-26-13 0z m0 13l13 0 0-13-13 0z m-102-79l418 0 0-13-418 0z m418 0l10 0 0-13-10 0z m-420 0l2 0 0-13-2 0z m150-221l130 0c8 0 15 7 15 16l0 10 0 2c-12 25-31 31-32 31l-11 0c-7 0-12 5-12 12l0 4c3 5 6 10 8 16 0 0 1 0 1 1 5 5 6 14 2 21 0 0 0 0 0 0l0 3c0 4 0 8 0 12 0 9-3 17-8 23-5 4-11 8-18 9-7 1-15 1-23-1-7-2-14-6-18-12-3-5-5-11-5-18 0-4 0-7 0-10l0-6c-1 0-1 0-1-1-4-6-2-15 4-21 0 0 0 0 0 0l0-1c2-5 4-10 8-15l0-4c0-7-5-12-12-12l-9 0-2 0c-1 0-20-6-32-31l-1-2 0-10c0-9 7-16 16-16z m-3 23c9 17 20 22 23 23l8 0c14 0 25 11 25 25l0 9-2 1c-3 4-5 9-7 14 0 1-1 4-3 5-2 2-3 4-1 7 0 1 2 3 2 5l0 7c0 3 0 6 0 9 0 5 1 9 3 12 2 3 6 6 11 7 5 1 11 1 17 0 3 0 7-2 10-5 5-4 5-11 5-14 0-4 0-8 0-12l0-4c0-3 2-5 2-6 1-1 1-4-1-6 0 0-2-2-3-5-2-5-4-10-7-14l-2-2 0-8c0-14 11-25 25-25l8 0c3-1 14-6 23-23l0-7c0-2-2-3-3-3l-130 0c-1 0-3 1-3 3z"/>
<glyph glyph-name="orang-3" unicode="&#101;" d="M407 76l-310 0c-16 0-29 12-29 28l0 24 1 1c27 57 69 69 70 70l2 0 22 0c21 0 38 17 38 38l0 12c-9 11-16 24-20 36l0 2c0 1-1 2-1 3-12 10-16 28-8 41 0 1 1 2 1 3 1 0 1 1 1 1l0 0c0 5 0 10 0 16 0 8 0 16 0 24 1 15 5 28 12 38 8 13 22 22 38 26 16 4 34 5 51 1 15-3 28-9 37-19 11-11 17-28 17-48 0-9 0-18 0-27l0-11c1 0 1 0 1-1 0 0 1-1 1-1 8-13 6-30-5-41 0-1-1-1-2-2 0 0 0 0-1-1l0 0c-4-15-11-29-21-40l0-12c0-21 17-38 38-38l24 0c2-1 43-13 71-70l0-1 0-24c0-16-13-28-28-28z m-326 49l0-21c0-9 7-16 16-16l310 0c8 0 15 7 15 16l0 21c-22 47-55 59-61 61l-21 0c-28 0-50 23-50 51l0 16 1 2c9 11 16 23 20 38 1 3 3 6 5 7 0 0 1 0 1 1 6 6 8 17 3 25 0 0-1 1-1 1-1 1-3 4-2 7l0 12c0 9 0 18 0 27-1 16-6 30-14 39-10 10-22 14-31 16-15 3-31 2-45-1-13-4-24-11-31-21-5-8-9-19-9-32 0-7 0-15 0-23 0-6 0-11 0-16 0-4-2-7-3-8 0-1-1-1-1-1-4-9-2-20 5-26 3-3 4-7 5-9l1-2c3-12 10-23 18-33l2-2 0-17c0-28-23-51-51-51l-21 0c-5-2-38-15-61-61z"/>
<glyph glyph-name="jam-1" unicode="&#102;" d="M256 51c-113 0-205 92-205 205 0 113 92 205 205 205 113 0 205-92 205-205 0-113-92-205-205-205z m0 398c-106 0-193-87-193-193 0-106 87-193 193-193 106 0 193 87 193 193 0 106-87 193-193 193z m-4-15l12 0 0-32-12 0z m0-324l12 0 0-32-12 0z m153 152l32 0 0-12-32 0z m-325 0l32 0 0-12-32 0z m194-6c0-8-7-15-16-15-8 0-15 7-15 15 0 8 7 15 15 15 9 0 16-7 16-15z m74-81l-96 80 0 134 12 0 0-129 92-76z"/>
<glyph glyph-name="gembok" unicode="&#103;" d="M355 323l0 23c0 54-45 99-99 99-54 0-99-45-99-99l0-23c-18-4-31-20-31-39l0-177c0-22 18-40 40-40l180 0c22 0 40 18 40 40l0 177c0 19-13 35-31 39z m-185 23c0 47 39 85 86 85 47 0 86-38 86-85l0-22-172 0z m203-239c0-15-12-26-27-26l-180 0c-15 0-27 11-27 26l0 177c0 14 11 26 25 26l2 1 182 0c14-1 25-13 25-27z m-117 153c-21 0-39-17-39-38 0-12 5-22 13-30l0-36c0-14 12-25 26-25 14 0 26 11 26 25l0 36c8 8 13 18 13 30 0 21-18 38-39 38z m15-59l-3-2 0-43c0-6-5-12-12-12-7 0-12 6-12 12l0 43-3 2c-7 5-11 12-11 21 0 14 12 25 26 25 14 0 26-11 26-25 0-9-4-16-11-21z"/>
<glyph glyph-name="orang-1" unicode="&#104;" d="M256 86c-93 0-170 76-170 170 0 93 77 170 170 170 94 0 170-77 170-170 0-94-76-170-170-170z m0 329c-88 0-159-71-159-159 0-88 71-159 159-159 88 0 159 71 159 159 0 88-71 159-159 159z m0-330c-94 0-171 77-171 171 0 94 77 171 171 171 94 0 171-77 171-171 0-94-77-171-171-171z m0 339c-93 0-168-75-168-168 0-93 75-168 168-168 93 0 168 75 168 168 0 93-75 168-168 168z m0-328c-88 0-160 72-160 160 0 88 72 160 160 160 88 0 160-72 160-160 0-88-72-160-160-160z m0 318c-87 0-158-71-158-158 0-87 71-158 158-158 87 0 158 71 158 158 0 87-71 158-158 158z m75-244l-150 0c-9 0-16 7-16 16l0 12 0 1c14 29 35 35 36 35l1 0 11 0c9 0 16 8 16 17l0 5c-4 5-7 11-9 17l0 1c0 0 0 1-1 1-6 5-8 15-4 22 0 1 1 1 1 2l0 7c0 4 0 7 0 11 1 8 3 15 6 20 5 7 12 12 20 14 8 2 17 2 26 0 7-1 14-5 19-10 5-6 9-14 9-24 0-5 0-9 0-14l0-4c0-1 0-1 0-1 5-7 4-17-2-22-1-1-1-1-1-1-3-7-6-14-10-19l0-5c0-9 7-17 16-17l12 0c1 0 22-6 36-35l0-1 0-12c0-9-7-16-16-16z m-155 26l0-10c0-3 2-5 5-5l150 0c3 0 5 2 5 5l0 10c-10 21-24 27-27 28l-10 0c-15 0-27 12-27 27l0 8 1 2c4 5 8 11 10 17 0 3 2 4 3 5l0 0c2 3 3 7 1 10-1 1-2 2-2 5l0 5c0 5 0 9 0 14 0 7-2 13-6 17-4 4-10 6-13 7-8 1-15 1-21-1-6-1-11-4-14-9-2-3-4-8-4-14 0-4 0-7 0-11l0-8c0-2-1-4-2-5l0-1c-2-3-1-7 2-9 2-2 2-4 3-6l0 0c2-6 5-11 9-16l1-1 0-9c0-15-12-27-27-27l-10 0c-3-1-17-7-27-28z m155-27l-150 0c-10 0-17 8-17 17l0 12 0 2c14 29 36 35 37 36l0 0 1 0 11 0c8 0 15 6 15 15l0 4c-4 6-7 12-9 18l-1 1c0 0 0 0 0 0-3 3-5 7-6 11-1 5 0 9 2 13 0 0 0 0 1 1l0 7 0 0c0 4 0 8 0 11l0 0c0 8 2 15 6 21 5 7 12 12 21 14 4 1 9 2 14 2 4 0 8-1 12-1 8-2 15-5 20-11 6-6 9-15 9-25 0-5 0-9 0-13l0-5c0 0 0 0 1 0 4-8 3-18-3-24-1-1-1-1-1-1-2-7-6-13-10-19l0-4c0-9 7-15 15-15l12 0 0 0c1-1 23-7 37-36l1-2 0-12c0-9-8-17-18-17z m-165 29l0-12c0-8 7-14 15-14l150 0c8 0 15 6 15 14l0 12-1 1c-12 27-32 33-34 34l-12 0c-10 0-18 8-18 18l0 5 1 0c4 6 7 12 9 19l1 1 0 0c0 0 1 0 1 1l0 0c5 5 6 14 2 20l0 0c0 1 0 1 0 1l0 0 0 6c0 4 0 8 0 13-1 9-4 18-9 23-5 5-11 9-19 10-3 1-7 1-11 1-5 0-9-1-14-2-8-2-14-6-19-13-3-5-5-11-5-19 0-3 0-7 0-11l0 0 0-8-1 0c0-1 0-1 0-1l0 0 0 0c-4-7-3-16 3-21l1-1 0 0c0 0 0 0 0 0 0 0 0 0 0 0l0-1c2-6 5-12 9-17l1-1 0-5c0-10-8-18-18-18l-10 0-2 0c-1-1-21-7-34-34z m165-18l-150 0c-4 0-7 3-7 6l0 10 0 0c5 9 11 17 17 22 6 5 10 6 12 7l0 0 10 0c14 0 26 12 26 26l0 8-1 1c-4 5-7 11-9 16l0 1c-1 1-2 3-3 5l0 0c-4 2-4 7-2 11l0 0 0 1c1 0 2 2 1 4l0 0 0 8 0 1c0 3 0 7 1 10l0 0c0 6 1 11 4 15 3 5 8 8 14 10 4 1 8 1 12 1 3 0 7 0 10-1 4-1 10-3 14-7 4-4 6-11 7-18 0-5 0-9 0-13l0-6c0-2 0-4 1-5l0 0c2-3 2-8-1-11l0 0c-1-1-3-2-3-4l0 0c-2-7-5-13-10-18l0-1 0-8c0-14 11-26 25-26l10 0 0 0c3-1 18-7 29-29l0 0 0-10c0-3-3-6-7-6z m-154 15l0-9c0-2 2-4 4-4l150 0c2 0 4 2 4 4l0 9c-10 20-23 26-26 27l-10 0c-16 0-28 13-28 29l0 9 1 2c4 4 7 10 9 17 1 2 3 4 4 5l0 0c2 2 2 6 1 8l0 0c-1 1-2 3-2 6l0 6c0 4 0 8 0 13 0 6-2 12-6 16-4 4-9 6-13 6-3 1-6 1-9 1-4 0-8 0-11-1-5-1-10-4-13-8-2-4-4-9-4-14 0-3 0-7 0-10l0-1 0-8c0-3-1-5-2-6l0 0c-1-3-1-6 1-8 3-2 4-5 4-6l0-1c2-5 5-10 9-15l1-2 0-9c0-16-12-29-28-29l-9 0c-4-1-17-7-27-27z"/>
<glyph glyph-name="orang-2" unicode="&#105;" d="M371 56l-337 0c-17 0-32 14-32 32l0 26 1 2c30 62 75 75 77 76l3 0 24 0c22 0 40 18 40 40l0 13c-10 12-17 26-22 40l0 1c0 1-1 2-1 3-14 11-17 31-9 46 0 1 1 2 2 3 0 0 0 1 0 1 0 6 0 12 0 17 0 9 0 17 0 26 1 16 6 31 13 42 9 14 25 24 42 29 18 4 37 5 56 1 16-3 31-10 41-21 12-13 19-31 19-53 0-10 0-20 0-30l0-11c0 0 0 0 0 0 1-1 1-2 2-2 8-14 6-34-6-46 0 0-1-1-2-2 0 0 0 0-1 0-5-17-12-32-22-44l0-13c0-22 18-40 40-40l26 0c2-1 47-14 77-76l1-2 0-26c0-18-14-32-32-32z m-353 54l0-22c0-9 8-16 16-16l337 0c9 0 16 7 16 16l0 22c-24 50-59 64-65 66l-23 0c-31 0-56 25-56 56l0 19 2 2c9 11 16 25 21 40 1 4 4 7 6 8 0 1 0 1 1 1 6 7 8 18 3 26l-1 1c-1 2-3 5-3 9l0 12c0 10 0 20 0 30 0 17-6 32-15 42-10 10-23 15-32 16-17 4-34 3-49-1-14-3-25-11-32-22-7-9-10-20-11-34 0-8 0-16 0-25 0-5 0-11 0-17 1-5-2-8-3-10 0 0 0-1-1-1-5-9-2-21 5-27 4-3 5-7 6-10l1-1c4-13 11-26 20-37l2-2 0-19c0-31-25-56-56-56l-23 0c-6-2-41-16-66-66z m399 92c-51 0-91 40-91 90 0 50 40 91 91 91 50 0 90-41 90-91 0-50-40-90-90-90z m0 165c-42 0-75-33-75-75 0-41 33-74 75-74 41 0 74 33 74 74 0 42-33 75-74 75z m0-113c-5 0-9 4-9 8l0 60c0 5 4 8 9 8 4 0 8-3 8-8l0-60c0-4-4-8-8-8z m29 30l-59 0c-5 0-8 4-8 8 0 5 3 8 8 8l59 0c5 0 9-3 9-8 0-4-4-8-9-8z"/>
<glyph glyph-name="akses-setting" unicode="&#97;" d="M256 411c-86 0-155-69-155-155 0-86 69-156 155-156 86 0 156 70 156 156 0 86-70 155-156 155z m0-296c-78 0-141 63-141 141 0 78 63 141 141 141 78 0 141-63 141-141 0-78-63-141-141-141z m114 141c0 63-51 114-114 114-63 0-113-51-113-114 0-31 12-60 33-80l10 10c-18 18-29 43-29 70 0 55 44 99 99 99 55 0 99-44 99-99 0-27-11-52-29-70l10-10c21 20 34 49 34 80z m-129-112c4-4 9-6 15-6l0 4c-5 0-10 1-15 2z m4 20c0 6 5 11 11 11l0 6-7 0 0 7c-11-3-18-12-18-24 0-1 0-3 0-4 5-1 11-2 16-3-1 2-2 4-2 7z m11-11c-4 0-7 2-9 4-5 1-11 2-16 3 1-7 5-13 10-16 5-1 10-2 15-2z m7 35l0-7-7 0 0-6c6 0 11-5 11-11 0-3-1-5-2-7 5 1 11 2 16 3 0 1 1 3 1 4 0 12-8 21-19 24z m-7-50c6 0 11 2 15 6-5-1-10-2-15-2z m0 15l0-11c5 0 10 1 15 2 5 3 9 9 10 16-5-1-11-2-16-3-2-2-5-4-9-4z m0 28l0 0 0-6 0 0z m0-39l0 0 0-4 0 0z m0 11l0 0 0-11 0 0z m0 103l0 0 0 0 0 0 7-7 0 48-14 0 0-48 7 7z m0 0l-7-7 0-61c2 1 5 1 7 1z m0 0l0 0 0 0z m0-67c3 0 5 0 7-1l0 61-7 7z m0 67l0 0 0-67 0 0z m0-75l0 8c-2 0-5 0-7-1l0-7z m0 0l7 0 0 7c-2 1-4 1-7 1z m0 8l0 0 0-8 0 0z"/>
<glyph glyph-name="orang-setting" unicode="&#106;" d="M375 112l-238 0c-14 0-25 11-25 25l0 18 0 2c22 45 55 55 57 55l2 1 17 0c14 0 26 11 26 26l0 8c-7 9-12 18-15 28l0 2c0 0-1 0-1 1-10 9-12 24-6 35 0 1 1 1 1 2 0 4 0 8 0 12 0 6 0 12 0 18 1 12 4 23 10 32 7 10 18 17 31 21 13 3 27 3 40 1 13-3 23-8 31-16 8-9 14-23 14-39 0-7 0-14 0-21l0-8c0 0 0-1 1-1 6-11 5-26-5-35 0 0 0-1-1-1l0 0c-4-12-9-22-16-31l0-8c0-15 12-26 26-26l19-1c2 0 35-10 57-55l0-2 0-18c0-14-11-25-25-25z m-248 40l0-15c0-6 5-10 10-10l238 0c6 0 10 4 10 10l0 15c-17 34-40 43-45 45l-16 0c-23 0-42 19-42 42l0 14 2 2c7 8 12 17 15 28 1 3 3 6 5 7l0 0c4 4 5 11 2 16-1 2-3 4-3 8l0 9c0 7 0 14 0 21 0 11-4 22-10 28-7 7-15 10-22 11-11 2-23 2-33-1-10-2-17-7-22-14-4-6-7-14-7-23 0-6 0-12 0-18 0-4 0-8 0-12 0-4-2-7-3-9l0-1c-3-5-2-12 3-15 3-3 4-7 5-9l0-1c3-9 8-17 14-25l2-2 0-14c0-23-19-42-42-42l-16 0c-5-2-28-11-45-45z"/>
<glyph glyph-name="organisasi-setting" unicode="&#107;" d="M256 308c-26 0-47 21-47 47 0 25 21 46 47 46 26 0 47-21 47-46 0-26-21-47-47-47z m0 79c-18 0-32-15-32-32 0-18 14-33 32-33 18 0 32 15 32 33 0 17-14 32-32 32z m-7-66l14 0 0-130-14 0z m7-210c-26 0-47 21-47 46 0 26 21 47 47 47 26 0 47-21 47-47 0-25-21-46-47-46z m0 79c-18 0-32-15-32-33 0-18 14-32 32-32 18 0 32 14 32 32 0 18-14 33-32 33z m180 1l-14 0 0 58-332 0 0-52-14 0 0 66 360 0z m-7-80c-25 0-46 21-46 46 0 26 21 47 46 47 26 0 47-21 47-47 0-25-21-46-47-46z m0 79c-18 0-32-15-32-33 0-18 14-32 32-32 18 0 33 14 33 32 0 18-15 33-33 33z m-346-79c-26 0-47 21-47 46 0 26 21 47 47 47 26 0 46-21 46-47 0-25-20-46-46-46z m0 79c-18 0-32-15-32-33 0-18 14-32 32-32 18 0 32 14 32 32 0 18-14 33-32 33z"/>
<glyph glyph-name="profil-setting" unicode="&#108;" d="M452 139l-392 0c-15 0-28 12-28 27l0 180c0 15 13 27 28 27l392 0c15 0 28-12 28-27l0-180c0-15-13-27-28-27z m-392 220c-7 0-13-6-13-13l0-180c0-7 6-13 13-13l392 0c7 0 13 6 13 13l0 180c0 7-6 13-13 13z m56-97c-18 0-33 15-33 33 0 19 15 34 33 34 19 0 34-15 34-34 0-18-15-33-34-33z m0 53c-10 0-19-9-19-20 0-10 9-19 19-19 11 0 19 9 19 19 0 11-8 20-19 20z m74 6l220 0 0-15-220 0z m0-36l149 0 0-15-149 0z m0-40l220 0 0-14-220 0z m0-36l149 0 0-14-149 0z"/>
<glyph glyph-name="struktur-setting" unicode="&#109;" d="M256 255l-62 36 0 71 62 36 62-36 0-71z m-46 45l46-26 46 26 0 53-46 27-46-27z m-37-186l-62 36 0 71 61 36 62-36 0-71z m-46 45l46-27 46 27 0 53-47 26-45-26z m212-45l-61 36 0 71 62 36 61-36 0-71z m-46 45l46-27 46 27 0 53-45 26-47-26z"/>
<glyph glyph-name="kalender-3" unicode="&#110;" d="M186 410l139 0 0-15-139 0z m222 0l-44 0 0-15 44 0c5 0 9-4 9-9l0-47 11 0 0-15-11 0 0-219c0-5-4-9-9-9l-304 0c-4 0-8 4-8 9l0 219-4 0 0 15 4 0 0 47c0 5 4 9 8 9l43 0 0 15-43 0c-13 0-23-11-23-24l0-281c0-13 10-24 23-24l304 0c13 0 23 11 23 24l0 281c0 13-10 24-23 24z m-71 21l15 0 0-6-15 0z m0-6l15 0 0-15-15 0z m0-30l15 0 0-22-15 0z m0 15l15 0 0-15-15 0z m-178 21l15 0 0-6-15 0z m0-6l15 0 0-15-15 0z m0-30l15 0 0-22-15 0z m0 15l15 0 0-15-15 0z m-63-71l321 0 0-15-321 0z m-4 0l4 0 0-15-4 0z m325 0l11 0 0-15-11 0z m-218-198l116 0c9 0 15 7 15 15l0 10 0 1c-11 23-29 28-29 29l-10 0c-6 0-10 4-10 10l0 3c3 4 5 9 7 14l0 0c5 6 7 15 3 21 0 0 0 0 0 0l0 3c0 3 0 7 0 10-1 8-3 16-8 21-4 4-10 7-16 8-7 1-15 1-21 0-7-2-13-6-17-12-3-4-5-10-5-16 0-3 0-7 0-10l0-4c0 0 0-1 0-1-4-6-2-15 3-20l0 0c2-5 4-10 7-14l0-3c0-6-4-10-10-10l-8 0-2 0c-1-1-18-6-29-29l-1-1 0-10c0-8 7-15 15-15z m-1 22c7 14 16 19 19 20l7 0c13 0 23 10 23 23l0 8-1 2c-3 3-5 7-7 11 0 1-1 4-3 6-1 1-1 3 0 4 0 1 2 3 1 6l0 6c0 2 0 5 0 8 0 3 1 7 3 10 2 3 5 5 9 6 5 1 10 1 15 0 3 0 7-2 9-4 4-4 4-9 4-12 0-4 0-7 0-10l0-4c0-3 2-5 2-6 1-1 1-3 0-4-1-1-3-3-3-5-2-5-4-9-7-13l-2-1 0-8c0-13 11-23 24-23l7 0c2-1 12-6 19-20l0-7c0-1-1-1-2-1l-116 0c-1 0-1 0-1 1z"/>
<glyph glyph-name="uang" unicode="&#111;" d="M359 285l0 0c0 0-1 1-1 1 0 0 0 0 0 1l-1 0c0 1 0 1 0 1 0 0-1 1-1 1 0 0-1 0-1 0l-134 77 79 49 1 0 129-74-55-35c-4-2-5-7-3-10 2-3 7-4 10-2l66 41c3 2 4 4 4 7 0 2-2 5-4 6l-145 82c-2 1-5 1-7 0l-232-146c-2-2-4-4-4-7 0-2 2-5 4-6l145-82c2-1 5-1 7 0l66 42c4 2 5 6 3 10-3 3-7 4-11 2l-62-39-1 0-129 74 79 50 1-1 136-77 0-103c0-3 1-5 4-7 2-1 5-1 7 0l46 30c3 1 4 3 4 6l0 107c0 0 0 1 0 1 0 0 0 1 0 1z m-15-105l-32-20 0 94c0 2-1 5-3 6l-134 76 32 21 1-1 129-73-32-19c-4-2-5-7-2-10 2-3 6-5 10-2l31 18z m101 133c-2 0-3 0-4-1l-66-42c-4-2-5-6-3-10 2-3 7-4 10-2l66 42c4 2 5 6 3 10-2 2-4 3-6 3z m-381-78l145-82c2-1 5-1 7 0l66 42c4 2 5 7 3 10-3 3-7 4-11 2l-62-39-1 1-140 79c-1 1-2 1-3 1-3 0-5-1-7-4-1-1-1-3 0-5 0-2 1-4 3-5z m381 42c-2 0-3 0-4-1l-66-41c-4-2-5-7-3-10 2-4 7-5 10-3l66 42c4 2 5 7 3 10-2 2-4 3-6 3z m-381-77l145-83c2-1 5-1 7 1l66 41c4 2 5 7 3 10-3 4-7 5-11 3l-62-40-1 1-140 79c-1 1-2 1-3 1-3 0-5-1-7-3-1-2-1-4 0-6 0-2 1-3 3-4z m381 42c-2 0-3-1-4-1l-66-42c-4-2-5-7-3-10 2-3 7-4 10-2l66 41c4 2 5 7 3 10-2 2-4 4-6 4z m-171-106l-62-39-1 0-140 80c-1 0-2 1-3 1-3 0-5-2-7-4-1-2-1-4 0-6 0-1 1-3 3-4l145-82c2-2 5-1 7 0l66 42c4 2 5 6 3 10-3 3-7 4-11 2z"/>
<glyph glyph-name="timbangan" unicode="&#112;" d="M461 294l0 0c0 0 0 0 0 0 0 0 0 0 0 0 0 0 0 1 0 1 0 0 0 0 0 0 0 0 0 0 0 0 0 0 0 1 0 1 0 0-1 0-1 0 0 0 0 0 0 0l0 0c0 0 0 0 0 0l-57 141c0 1-1 1-1 1 5 4 8 10 8 16 0 10-9 19-20 19-10 0-18-8-19-18l-93-27c-6 10-17 15-29 12-7-2-12-6-15-12-3-4-4-9-4-13l-93-27c-3 5-9 8-15 8-11 0-20-8-20-19 0-6 3-11 8-15l-58-143c0 0 0 0 0 0l0 0c0 0 0 0 0 0 0 0 0 0-1 0 0 0 0 0 0 0 0-1 0-1 0-1 0 0 0 0 0 0 0 0 0 0 0 0 0-1 0-1 0-1 0 0 0 0 0 0 0 0 0 0 0 0 0 0 0 0 0 0 0-39 32-70 71-70 38 0 70 31 70 70 0 0 0 0 0 0l0 0c0 0 0 0 0 0 0 0 0 0 0 1 0 0 0 0 0 0 0 0 0 0 0 0 0 0 0 0 0 1 0 0 0 0 0 0 0 0 0 0 0 0 0 0 0 0 0 0l0 0c0 0 0 0 0 0l-58 141c0 1-1 1-1 2 5 3 8 8 8 14l93 26c1-1 2-3 3-4 0 0 0-1 0-2l0-262c-11 0-19-9-19-19l0-13-32 0c-11 0-20-9-20-19l0-13c0-4 3-7 7-7l166 0c4 0 7 3 7 7l0 13c0 10-9 19-20 19l-32 0 0 13c0 10-8 19-19 19l0 262c0 1 0 2 0 2 1 2 2 3 3 5 3 4 4 8 4 13l93 26c1-1 2-2 3-3l-57-143c0 0 0 0 0 0l0 0c0 0-1 0-1 0 0 0 0 0 0 0 0 0 0-1 0-1 0 0 0 0 0 0 0 0 0 0 0 0 0 0 0-1 0-1 0 0 0 0 0 0 0 0 0 0 0 0 0 0 0 0 0 0 0 0 0 0 0 0 0-39 32-71 70-71 39 0 71 32 71 71 0 0 0 0 0 0z m-71 166c4 0 7-3 7-6 0-4-3-7-7-7-3 0-6 3-6 7 0 3 3 6 6 6z m-145-38c2 3 4 5 8 6 1 0 2 0 3 0 6 0 11-3 12-9l0 0c0 0 0 0 0 0 1-3 1-7-1-10-1-3-4-5-7-6-7-2-14 2-16 9 0 0 0 0 0 0-1 3-1 7 1 10z m-123-39c3 0 6-2 6-6 0-4-3-6-6-6-4 0-7 2-7 6 0 4 3 6 7 6z m54-160l-3 0c-4 0-7-2-7-6 0-4 3-6 7-6l6 0c-3-29-28-52-57-52-30 0-54 23-58 52l108 0c4 0 6 2 6 6 0 4-2 6-6 6l-105 0 55 135c0-1 0-2 0-3z m106-108l0-20c0-3 3-6 6-6l38 0c4 0 7-3 7-6l0-7-154 0 0 7c0 3 3 6 7 6l101 0c4 0 7 3 7 6 0 4-3 7-7 7l-57 0 0 13c0 3 3 6 7 6l38 0c4 0 7-3 7-6z m-32 19l0 257c2-1 4-1 6-1 2 0 4 0 6 1l0-257z m140 102c-29 0-54 23-57 51l108 0c3 0 6 3 6 7 0 3-3 6-6 6l-105 0 54 135c0-1 1-2 1-3l54-132-3 0c-4 0-7-3-7-6 0-4 3-7 7-7l6 0c-3-28-28-51-58-51z"/>
<glyph glyph-name="komponen" unicode="&#113;" d="M432 86l-352 0c-13 0-24 10-24 23l0 282c0 13 11 23 24 23l352 0c14 0 24-10 24-23l0-282c0-13-10-23-24-23z m-352 313c-5 0-9-4-9-8l0-282c0-4 4-8 9-8l352 0c5 0 9 4 9 8l0 282c0 4-4 8-9 8z m108-131l-77 0 0 77 77 0z m-63 15l48 0 0 47-48 0z m170-15l-78 0 0 77 78 0z m-63 15l48 0 0 47-48 0z m170-15l-78 0 0 77 78 0z m-63 15l48 0 0 47-48 0z m-151-128l-77 0 0 77 77 0z m-63 15l48 0 0 47-48 0z m170-15l-78 0 0 77 78 0z m-63 15l48 0 0 47-48 0z m170-15l-78 0 0 77 78 0z m-63 15l48 0 0 47-48 0z"/>
<glyph glyph-name="kalkulator-2" unicode="&#114;" d="M399 92c0-5-5-10-10-10l-264 0c-5 0-9 5-9 10l0 328c0 6 4 10 9 10l173 0 0 15-173 0c-13 0-24-11-24-25l0-328c0-13 11-25 24-25l264 0c13 0 24 12 24 25l0 258-14 0z m-229 238l0 45 141 0 0 15-156 0 0-74 127 0 0 14z m41-64l-56 0 0-55 56 0z m-15-40l-26 0 0 25 26 0z m89 40l-55 0 0-55 55 0z m-15-40l-26 0 0 25 26 0z m89 40l-55 0 0-55 55 0z m-15-40l-25 0 0 25 25 0z m-133-33l-56 0 0-55 56 0z m-15-40l-26 0 0 25 26 0z m89 40l-55 0 0-55 55 0z m-15-40l-26 0 0 25 26 0z m89 40l-55 0 0-55 55 0z m-15-40l-25 0 0 25 25 0z m0 327c4 4 10 6 16 6 2 0 5 0 7-1 3-1 6-3 8-6 4-4 6-10 6-15l-1-27c0-10-7-18-16-20l-1-39 26 29c-2 3-3 6-3 10 0 6 2 11 5 16l18 19c4 5 9 7 15 8 6 0 12-2 16-6 4-4 7-9 7-15 1-6-1-12-5-16l-18-20c-4-4-9-7-15-7-3 0-7 0-10 2l-37-41-1-52c-1-4-4-7-7-7-4 0-7 4-7 7l1 36-24-27c-2-2-6-3-9 0-3 2-3 7-1 9l35 39 2 55c-9 3-15 12-15 22l1 26c0 6 3 11 7 15z m55-62c0-3 1-5 3-6 0 0 0 0 0 0 1-1 2-2 3-2 1 0 2-1 3-1 3 1 5 2 6 3l18 20c1 2 2 4 2 6 0 2-1 5-3 6-2 2-4 2-6 2-2 0-4-1-6-3l-18-19c-1-2-2-4-2-6z m-49 47l0-27c-1-5 3-8 8-9 4 0 8 4 9 9l0 26c0 2 0 4-2 6-1 2-4 3-6 3-2 0-4-1-6-3-2-1-3-3-3-5z"/>
<glyph glyph-name="kalender-1" unicode="&#115;" d="M408 410l-44 0 0-15 44 0c5 0 9-4 9-9l0-47 11 0 0-15-11 0 0-219c0-5-4-9-9-9l-304 0c-4 0-8 4-8 9l0 219-4 0 0 15 4 0 0 47c0 5 4 9 8 9l43 0 0 15-43 0c-13 0-23-11-23-24l0-281c0-13 10-24 23-24l304 0c13 0 23 11 23 24l0 281c0 13-10 24-23 24z m-222 0l139 0 0-15-139 0z m151 21l15 0 0-6-15 0z m0-36l15 0 0-22-15 0z m0 30l15 0 0-15-15 0z m0-15l15 0 0-15-15 0z m-178 21l15 0 0-6-15 0z m0-6l15 0 0-15-15 0z m0-30l15 0 0-22-15 0z m0 15l15 0 0-15-15 0z m-63-71l321 0 0-15-321 0z m321 0l11 0 0-15-11 0z m-325 0l4 0 0-15-4 0z m155-179l-70 0 35 31c23 20 34 32 34 51l0 0c0 22-18 38-41 38-23 0-36-11-47-28l10-8c11 14 21 22 36 22 14 0 26-10 26-25 0-13-7-23-27-41l-48-42 0-12 92 0z m70-2c-16 0-28 7-38 19l-11-10c11-13 27-23 49-23 24 0 44 16 44 40l0 0c0 24-21 35-43 37l41 46 0 11-84 0 0-14 64 0-41-46 3-9 8 0c22 0 37-9 37-26l0 0c0-15-13-25-29-25z"/>
<glyph glyph-name="modul" unicode="&#116;" d="M432 115l-352 0c-13 0-24 11-24 24l0 234c0 13 11 24 24 24l352 0c14 0 24-11 24-24l0-234c0-13-10-24-24-24z m-352 267c-5 0-9-4-9-9l0-234c0-5 4-9 9-9l352 0c5 0 9 4 9 9l0 234c0 5-4 9-9 9z m108-198l-77 0 0 77 77 0z m-63 15l48 0 0 47-48 0z m170-15l-78 0 0 77 78 0z m-63 15l48 0 0 47-48 0z m170-15l-78 0 0 77 78 0z m-63 15l48 0 0 47-48 0z m-280 129l390 0 0-15-390 0z"/>
<glyph glyph-name="delegasi-orang" unicode="&#117;" d="M204 157l-176 0c-10 0-18 9-18 19l0 14 1 1c15 33 40 40 41 41l1 0 13 0c11 0 19 8 19 19l0 6c-5 7-8 14-11 21l0 1c0 0 0 0 0 1-8 6-10 17-5 26 0 0 1 1 1 1 0 3 0 6 0 9 0 5 0 9 0 13 0 9 3 17 7 24 5 7 13 13 23 15 9 2 20 3 30 1 9-2 17-6 22-12 7-7 10-17 11-28 0-6 0-11 0-16l0-6c0 0 0 0 0 0 5-8 4-19-3-26 0 0-1-1-1-1l0 0c-3-9-7-16-12-23l0-6c0-11 9-19 20-19l14 0c1-1 25-8 41-41l1-1 0-14c0-10-8-19-19-19z m-182 30l0-11c0-4 3-7 6-7l176 0c4 0 7 3 7 7l0 11c-12 25-29 32-33 33l-11 0c-17 0-31 14-31 31l0 10 1 2c5 6 9 13 11 20 1 3 2 5 3 6l1 0c3 3 3 8 1 12-1 1-2 3-2 6l0 6c0 5 0 10 0 15 0 9-3 16-7 21-5 5-12 7-16 8-9 2-17 2-25 0-7-2-13-6-16-11-3-4-5-10-5-17 0-4 0-8 0-13 0-3 0-6 0-9 0-3-2-5-2-6l-1-1c-2-4-1-9 2-12 3-1 4-4 4-6l0 0c2-7 6-13 11-19l1-1 0-11c0-17-14-31-31-31l-12 0c-3-1-20-8-32-33z m182-31l-176 0c-11 0-20 9-20 20l0 14 1 1c16 35 41 42 42 42l1 0 1 0 13 0c10 0 18 8 18 18l0 6c-5 6-9 13-11 20l-1 1c0 1 0 1 0 1-7 7-9 19-4 28 0 0 0 0 0 1 0 3 0 5 0 8l0 1c0 4 0 8 0 12l0 0c1 10 3 18 8 24 5 8 14 14 24 17 5 1 11 2 16 2 5 0 10-1 14-2 9-1 17-6 23-12 7-7 11-17 11-29 0-5 0-10 0-15l0-6c0 0 1 0 1-1 5-8 4-20-4-27 0-1 0-1-1-1-2-9-6-16-11-22l0-6c0-10 8-18 18-18l14 0 0 0c1 0 26-7 43-42l0-1 0-14c0-11-9-20-20-20z m-192 33l0-13c0-10 7-17 16-17l176 0c10 0 17 7 17 17l0 13 0 1c-15 32-38 39-40 40l-14 0c-12 0-21 10-21 21l0 7 0 0c5 6 9 14 11 22l1 1 0 0c0 0 1 1 1 1l0 0c3 3 5 7 5 11 1 5 0 9-2 13l0 0c0 0 0 0-1 0l0 1 0 7c0 5 0 10 0 15 0 11-4 20-10 27-5 6-13 10-21 11-5 1-9 1-14 1-5 0-11 0-16-2-9-2-17-7-22-14-4-6-6-14-6-23 0-4 0-8 0-12l0-1c0-3 0-6 0-9l0 0-1-1c0 0 0-1 0-1l0 0-1 0c-4-8-2-18 5-24l0 0 0-1c0 0 0 0 1 0 0 0 0-1 0-1l0-1c2-7 6-13 11-20l0 0 0-7c0-11-9-21-21-21l-12 0-2 0c-2-1-25-8-40-40z m192-22l-176 0c-4 0-8 4-8 9l0 11 0 1c5 10 12 19 20 26 7 5 12 7 14 8l0 0 12 0c16 0 29 13 29 29l0 10-1 1c-4 6-8 12-10 19l0 1c-1 1-2 4-4 5l0 0c-3 3-5 10-2 14l0 0 0 1c1 1 2 3 2 5l0 0 0 0c0 3 0 6 0 9 0 5 0 9 0 13l0 0c0 7 2 13 5 18 4 5 10 10 17 11 5 1 10 2 14 2 4 0 8 0 12-1 5-1 12-3 17-9 5-5 7-13 8-22 0-5 0-10 0-15l0-6c0-3 1-4 2-5l0-1c2-4 2-10-2-13l0 0-1-1c0 0-2-2-3-4l0 0c-2-8-6-15-11-21l-1-1 0-10c0-16 13-29 30-29l12 0 0 0c2-1 7-3 14-8 8-7 14-16 20-26l0-1 0-11c0-5-4-9-9-9z m-181 20l0-11c0-3 3-5 5-5l176 0c3 0 5 2 5 5l0 11c-11 23-27 30-31 31l-11 0c-18 0-33 15-33 33l0 11 2 2c4 6 8 12 10 20 1 3 3 5 4 6l1 0c2 3 3 7 1 10l0 0c-1 1-3 3-3 7l0 6c0 5 0 10 0 15 0 9-2 16-7 20-4 5-10 7-15 8-3 0-7 1-11 1-4 0-9-1-13-2-6-1-12-5-15-10-3-4-4-10-5-16 0-4 0-8 0-13 0-3 0-6 0-9 0-3-1-6-2-7l0-1c-2-3-1-7 1-9 3-2 4-6 5-7l0-1c2-6 5-12 10-18l2-2 0-11c0-18-15-33-33-33l-11 0c-4-1-20-8-32-31z m461-30l-176 0c-10 0-19 9-19 19l0 14 1 1c16 33 40 40 41 41l2 0 12 0c11 0 20 8 20 19l0 6c-5 7-9 14-11 21l-1 1c0 0 0 0 0 1-7 6-9 17-5 26 1 0 1 1 1 1 0 3 0 6 0 9 0 5 0 9 0 13 1 9 3 17 7 24 5 7 14 13 23 15 10 2 20 3 30 1 9-2 17-6 22-12 7-7 11-17 11-28 0-6 0-11 0-16l0-6c0 0 0 0 1 0 5-8 3-19-3-26-1 0-1-1-2-1l0 0c-2-9-6-16-11-23l0-6c0-11 8-19 19-19l14 0c1-1 26-8 42-41l0-1 0-14c0-10-8-19-18-19z m-183 30l0-11c0-4 3-7 7-7l176 0c3 0 7 3 7 7l0 11c-13 25-30 32-33 33l-12 0c-17 0-31 14-31 31l0 10 1 2c5 6 9 13 11 20 1 3 3 5 4 6l0 0c3 3 4 8 2 12-1 1-3 3-3 6l0 6c0 5 0 10 0 15 0 9-2 16-7 21-5 5-11 7-16 8-8 2-17 2-25 0-7-2-12-6-16-11-3-4-5-10-5-17 0-4 0-8 0-13 0-3 0-6 0-9 0-3-1-5-2-6l0-1c-2-4-1-9 2-12 2-1 3-4 4-6l0 0c2-7 5-13 10-19l1-1 0-11c0-17-13-31-31-31l-11 0c-4-1-21-8-33-33z m183-31l-176 0c-11 0-20 9-20 20l0 14 0 1c17 35 42 42 43 42l0 0 2 0 12 0c10 0 18 8 18 18l0 6c-5 6-9 13-11 20l0 1c0 1 0 1 0 1-8 7-10 19-5 28 0 0 0 0 1 1 0 3 0 5 0 8l0 1c0 4 0 8 0 12l0 0c0 10 3 18 7 24 5 8 14 14 24 17 5 1 11 2 17 2 4 0 9-1 14-2 9-1 17-6 23-12 6-7 10-17 11-29 0-5 0-10 0-15l0-6c0 0 0 0 0-1 5-8 4-20-3-27-1-1-1-1-1-1-3-9-7-16-12-22l0-6c0-10 8-18 18-18l14 0 1 0c1 0 26-7 42-42l1-1 0-14c0-11-9-20-20-20z m-193 33l0-13c0-10 7-17 17-17l176 0c9 0 17 7 17 17l0 13-1 1c-15 32-38 39-40 40l-14 0c-12 0-21 10-21 21l0 7 0 0c5 6 9 14 12 22l0 1 0 0c1 0 1 1 1 1l0 0c3 3 5 7 6 11 0 5-1 9-3 13l0 0c0 0 0 0 0 0l-1 1 0 7c0 5 0 10 0 15 0 11-3 20-10 27-5 6-12 10-21 11-4 1-9 1-13 1-6 0-11 0-16-2-9-2-17-7-22-14-4-6-7-14-7-23 0-4 0-8 0-12l0-1c0-3 0-6 0-9l0 0 0-1c-1 0-1-1-1-1l0 0 0 0c-4-8-3-18 4-24l1 0 0-1c0 0 0 0 0 0 0 0 0-1 0-1l0-1c3-7 6-13 11-20l0 0 0-7c0-11-9-21-21-21l-12 0-1 0c-2-1-25-8-41-40z m193-22l-176 0c-5 0-9 4-9 9l0 11 1 1c5 10 12 19 20 26 6 5 11 7 13 8l0 0 12 0c17 0 30 13 30 29l0 10-1 1c-5 6-9 12-11 19l0 1c0 1-1 4-3 5l0 0c-4 3-5 10-3 14l0 0 1 1c0 1 2 3 1 5l0 0 0 0c0 3 0 6 0 9 0 5 0 9 0 13l0 0c1 7 3 13 6 18 3 5 10 10 17 11 4 1 9 2 14 2 4 0 8 0 11-1 5-1 12-3 17-9 5-5 8-13 8-22 0-5 0-10 0-15l0-6c0-3 1-4 2-5l0-1c3-4 2-10-2-13l0 0 0-1c-1 0-3-2-3-4l0 0c-3-8-6-15-11-21l-1-1 0-10c0-16 13-29 29-29l12 0 0 0c2-1 8-3 14-8 8-7 15-16 20-26l0-1 0-11c0-5-4-9-8-9z m-181 20l0-11c0-3 2-5 5-5l176 0c3 0 5 2 5 5l0 11c-12 23-28 30-32 31l-11 0c-18 0-33 15-33 33l0 11 2 2c5 6 8 12 11 20 0 3 3 5 4 6l0 0c2 3 3 7 1 10l0 0c-1 1-2 3-2 7l0 6c0 5 0 10 0 15 0 9-3 16-7 20-5 5-11 7-15 8-4 0-8 1-11 1-5 0-9-1-13-2-7-1-12-5-16-10-2-4-4-10-4-16 0-4 0-8 0-13 0-3 0-6 0-9 0-3-2-6-3-7l0-1c-2-3-1-7 2-9 3-2 4-6 4-7l0-1c2-6 6-12 10-18l2-2 0-11c0-18-15-33-33-33l-11 0c-4-1-20-8-31-31z m-87 14l85 0 0-15-85 0z"/>
<glyph glyph-name="centang" unicode="&#118;" d="M368 279c-3 3-8 3-11 0l-122-123-73 74c-3 3-8 3-11 0-4-4-4-9 0-12l78-78c0 0 0 0 0 0 0 0 0 0 0 0 3-3 8-3 12 0l127 127c3 4 3 9 0 12z m-133-142c-2 0-4 1-6 2l0 0c0 0 0 0 0 1l-79 78c-3 3-3 9 0 12 2 2 4 3 6 3 2 0 5-1 6-3l73-73 122 122c1 2 3 3 6 3 2 0 4-1 6-3 1-2 2-4 2-6 0-2-1-4-2-6l-128-128c-2-1-4-2-6-2z m-5 3c1-1 3-2 5-2 2 0 4 1 5 2l128 128c1 1 2 3 2 5 0 2-1 4-2 5-2 1-3 2-5 2-2 0-4-1-5-2l-123-123-74 74c-1 1-3 2-5 2-2 0-4-1-5-2-3-3-3-7 0-10l79-78 0 0 0-1c0 0 0 0 0 0z m178 270l-44 0 0-15 44 0c5 0 9-4 9-9l0-47 11 0 0-15-11 0 0-219c0-5-4-9-9-9l-304 0c-4 0-8 4-8 9l0 219-4 0 0 15 4 0 0 47c0 5 4 9 8 9l43 0 0 15-43 0c-13 0-23-11-23-24l0-281c0-13 10-24 23-24l304 0c13 0 23 11 23 24l0 281c0 13-10 24-23 24z m-222 0l139 0 0-15-139 0z m151 21l15 0 0-6-15 0z m0-36l15 0 0-22-15 0z m0 30l15 0 0-15-15 0z m0-15l15 0 0-15-15 0z m-178 21l15 0 0-6-15 0z m0-6l15 0 0-15-15 0z m0-30l15 0 0-22-15 0z m0 15l15 0 0-15-15 0z m-63-71l321 0 0-15-321 0z m321 0l11 0 0-15-11 0z m-325 0l4 0 0-15-4 0z"/>
<glyph glyph-name="pensil" unicode="&#119;" d="M437 344l-46 47c0 0 0 0 0 0 0 0 0 0 0 0l-47 46c-3 3-6 4-10 4-3 0-6-1-9-4l-226-226c-2-2-3-4-4-6l-24-118c-1-5 1-9 4-12 2-3 6-4 9-4 1 0 2 0 3 0l118 24c2 1 5 2 6 4l226 226c6 5 6 14 0 19z m-320-169l58-58-73-16z m85-48l-74 75 206 207 28-28-125-125c-5-5-5-14 0-19 3-3 6-4 9-4 4 0 7 1 10 4l125 125 28-28z"/>
<glyph glyph-name="uang-1" unicode="&#120;" d="M247 108c-40 4-75 20-106 47l20 27c27-25 53-39 87-43l0 112c-66 16-96 41-96 88l0 1c0 46 39 80 95 82l0 27 29 0 0-27c33-4 60-16 86-36l-20-27c-21 18-44 28-68 32l0-111c69-16 97-42 97-87l0-1c0-48-39-81-95-85l0-44-29 0z m1 284c-38-1-61-23-61-50l0-1c0-25 12-42 61-54z m89-202l0 1c0 26-13 42-63 54l0-107c39 1 63 23 63 52z"/>
<glyph glyph-name="kalender-4" unicode="&#121;" d="M435 55l-358 0c-19 0-35 16-35 35l0 332c0 19 16 35 35 35l358 0c19 0 35-16 35-35l0-332c0-19-16-35-35-35z m-358 370c-2 0-4-1-4-3l0-332c0-2 2-4 4-4l358 0c2 0 4 2 4 4l0 332c0 2-2 3-4 3z m-15-52l397 0 0-31-397 0z m77-204l49 40c18 15 26 23 26 35 0 13-9 19-20 19-12 0-19-6-30-19l-23 18c14 20 29 30 55 30 30 0 51-17 51-45l0 0c0-25-13-37-39-58l-24-18 64 0 0-28-109 0z m129-3l22 21c10-11 21-18 36-18 12 0 21 7 21 18l0 1c0 12-11 19-29 19l-14 0-5 20 35 36-58 0 0 27 100 0 0-24-37-36c20-3 39-14 39-41l0 0c0-28-20-49-53-49-26 0-44 11-57 26z"/>
<glyph glyph-name="tulisan" unicode="&#122;" d="M83 422l346 0 0-36-346 0z m0-98l346 0 0-37-346 0z m0-99l346 0 0-37-346 0z m0-99l346 0 0-37-346 0z"/>
<glyph glyph-name="jam-2" unicode="&#65;" d="M256 48c-115 0-208 93-208 208 0 115 93 208 208 208 115 0 208-93 208-208 0-115-93-208-208-208z m0 385c-98 0-177-79-177-177 0-98 79-177 177-177 98 0 177 79 177 177 0 98-79 177-177 177z m-16-5l32 0 0-30-32 0z m0-314l32 0 0-31-32 0z m158 158l31 0 0-32-31 0z m-314 0l30 0 0-32-30 0z m172-47c-17 0-30 14-30 31 0 17 13 30 30 30 17 0 30-13 30-30 0-17-13-31-30-31z m81-55l-97 80 0 128 32 0 0-113 85-71z"/>
<glyph glyph-name="orang-4" unicode="&#66;" d="M418 54l-324 0c-22 0-40 18-40 40l0 27 1 3c31 64 79 78 81 79l4 0 23 0c17 0 30 14 30 30l0 9c-9 12-16 25-20 38l1 1c-17 14-20 37-11 56l2 1-1 13c0 9 0 17 1 26 0 18 5 34 14 46 10 15 26 26 45 31 19 5 39 5 58 2 18-4 33-12 44-24 14-13 21-34 22-56 0-10 0-19 0-28l0-10c10-17 8-41-7-55l-1-1c-5-16-12-29-21-40l0-9c0-16 13-30 30-30l27 0c2-1 50-15 81-79l1-3 0-27c0-22-18-40-40-40z m-330 59l0-19c0-4 3-6 6-6l324 0c4 0 6 2 6 6l0 19c-20 41-48 54-55 57l-20 0c-35 0-64 28-64 63l0 21 4 5c9 10 15 22 19 35 1 6 6 11 8 13 4 3 5 10 3 14-2 2-6 7-5 14l0 13c0 9 0 18 0 27-1 8-2 24-12 34-8 8-19 12-26 13-15 3-30 3-43-1-11-2-21-9-26-17-5-7-8-17-8-28-1-8-1-16-1-25l0-16c1-6-3-12-4-14-3-5-2-12 2-15 6-4 8-11 9-14 4-13 10-23 18-33l4-5 0-21c0-35-29-63-64-63l-20 0c-7-3-35-16-55-57z"/>
<glyph glyph-name="aset-kotak" unicode="&#67;" d="M227 285l-151 0 0 151 151 0z m-117 34l83 0 0 83-83 0z m326-34l-151 0 0 151 151 0z m-117 34l83 0 0 83-83 0z m-92-243l-151 0 0 151 151 0z m-117 34l83 0 0 83-83 0z m326-34l-151 0 0 151 151 0z m-117 34l83 0 0 83-83 0z"/>
<glyph glyph-name="orang-kotak" unicode="&#68;" d="M444 47l-376 0c-19 0-34 16-34 35l0 348c0 19 15 35 34 35l376 0c19 0 34-16 34-35l0-348c0-19-15-35-34-35z m-376 390c-4 0-6-3-6-7l0-348c0-4 2-7 6-7l376 0c4 0 6 3 6 7l0 348c0 4-2 7-6 7z m289-310l-202 0c-15 0-28 12-28 28l1 21c20 41 51 50 52 50l4 1 14 0c9 0 15 6 15 15l0 4c-5 8-9 16-12 24 0 0 0 0 0 0-10 11-12 26-6 38l1 0 0 5c0 6 0 12 0 18 0 12 3 23 9 31 7 10 18 17 30 21 12 3 26 3 38 1 12-3 22-8 29-16 9-9 14-23 14-38l0-17 0-5c7-11 6-27-5-38 0 0 0 0 0 0-3-9-7-17-12-24l0-4c0-9 6-15 15-15l18-1c1 0 32-9 52-50l1-6 0-15c0-16-12-28-28-28z m-202 39l0-11 202 0c0 0 0 0 0 0l0 11c-11 23-27 31-31 33l-12 0c-24 0-43 19-43 43l0 14 3 4c5 6 9 13 11 21 1 4 5 8 7 9 0 1 1 3 0 4-1 2-4 6-4 11l0 8 0 17c0 5-1 13-6 19-4 4-10 6-14 7-9 2-18 2-26-1-6-1-11-4-14-9-3-5-4-11-4-15l0-18 0-8c0-5-3-9-4-11-1-1 0-3 1-4 4-3 6-8 6-11 3-7 6-13 11-19l3-4 0-14c0-24-19-43-43-43l-12 0c-4-2-19-10-31-33z"/>
<glyph glyph-name="tambah" unicode="&#69;" d="M256 462c-114 0-206-92-206-206 0-114 92-207 206-207 114 0 207 93 207 207 0 114-93 206-207 206z m0-387c-100 0-181 81-181 181 0 100 81 181 181 181 100 0 181-81 181-181 0-100-81-181-181-181z m78 194l-65 0 0 64c0 8-6 13-13 13-7 0-13-5-13-13l0-64-64 0c-8 0-13-6-13-13 0-7 5-13 13-13l64 0 0-64c0-8 6-13 13-13 7 0 13 5 13 13l0 64 65 0c7 0 12 6 12 13 0 7-5 13-12 13z m-78-222c-115 0-209 94-209 209 0 115 94 209 209 209 115 0 209-94 209-209 0-115-94-209-209-209z m0 413c-113 0-204-91-204-204 0-113 91-204 204-204 113 0 204 91 204 204 0 113-91 204-204 204z m0-387c-101 0-183 82-183 183 0 101 82 183 183 183 101 0 183-82 183-183 0-101-82-183-183-183z m0 362c-98 0-179-81-179-179 0-99 81-179 179-179 99 0 179 80 179 179 0 98-80 179-179 179z m0-271c-8 0-15 6-15 15l0 62-62 0c-9 0-15 7-15 15 0 8 6 15 15 15l62 0 0 62c0 9 7 15 15 15 8 0 15-6 15-15l0-62 63 0c8 0 14-7 14-15 0-8-6-15-14-15l-63 0 0-62c0-9-7-15-15-15z m-77 103c-6 0-11-5-11-11 0-6 5-11 11-11l66 0 0-66c0-6 5-11 11-11 6 0 11 5 11 11l0 66 67 0c5 0 10 5 10 11 0 6-5 11-10 11l-67 0 0 66c0 6-5 11-11 11-6 0-11-5-11-11l0-66z"/>
<glyph glyph-name="kalender-5" unicode="&#70;" d="M444 47l-376 0c-19 0-34 16-34 35l0 348c0 19 15 35 34 35l376 0c19 0 34-16 34-35l0-348c0-19-15-35-34-35z m-376 390c-4 0-6-3-6-7l0-348c0-4 2-7 6-7l376 0c4 0 6 3 6 7l0 348c0 4-2 7-6 7z m-16-60l417 0 0-28-417 0z m226-163l59 58c5 6 5 15 0 20-6 5-14 5-20 0l-59-59-59 59c-5 5-14 5-19 0-6-5-6-14 0-20l59-58-59-59c-6-6-6-15 0-20 5-5 14-5 19 0l59 59 59-59c6-5 14-5 20 0 5 5 5 14 0 20z m49-85c-4 0-8 2-11 5l-58 57-57-57c-6-6-17-6-23 0-3 3-4 7-4 11 0 4 1 8 4 11l58 58-58 57c-3 3-4 7-4 11 0 5 1 9 4 12 6 6 17 6 23 0l57-58 58 58c6 6 16 6 22 0 3-3 5-7 5-12 0-4-2-8-5-11l-57-57 57-58c3-3 5-7 5-11 0-4-2-8-5-11-3-3-7-5-11-5z m-69 68l61-60c4-5 12-5 16 0 3 2 4 5 4 8 0 3-1 6-4 8l-60 61 2 1 58 59c3 2 4 5 4 8 0 3-1 6-4 9-4 4-12 4-16 0l-61-61-60 61c-4 4-12 4-17 0-2-3-3-6-3-9 0-3 1-6 3-8l61-60-2-2-59-59c-2-2-3-5-3-8 0-3 1-6 3-8 5-5 13-5 17 0z"/>
<glyph glyph-name="panah" unicode="&#71;" d="M367 263l-68 68c-4 4-11 4-15 0-4-4-4-11 0-15l50-49-181 0c-6 0-11-5-11-11 0-6 5-11 11-11l181 0-50-49c-4-4-4-11 0-15 2-2 5-3 8-3 2 0 5 1 7 3l68 67c4 5 4 11 0 15z m-75-89c-4 0-8 2-10 4-3 3-5 6-5 10 0 4 2 8 5 10l43 44-172 0c-8 0-14 6-14 14 0 8 6 14 14 14l172 0-43 44c-3 2-5 6-5 10 0 3 2 7 5 10 5 5 14 5 20 0l67-68c6-6 6-15 0-20l-67-68c-3-2-7-4-10-4z m-139 89c-4 0-7-3-7-7 0-4 3-7 7-7l189 0-55-56c-2-1-3-3-3-5 0-2 1-3 3-5 2-3 7-2 10 0l67 68c3 3 3 7 0 10l-67 68c-3 2-8 2-10 0-2-2-3-3-3-5 0-2 1-4 3-5l55-56z m103 199c-114 0-206-92-206-206 0-114 92-207 206-207 114 0 207 93 207 207 0 114-93 206-207 206z m0-387c-100 0-181 81-181 181 0 100 81 181 181 181 100 0 181-81 181-181 0-100-81-181-181-181z m0-28c-115 0-209 94-209 209 0 115 94 209 209 209 115 0 209-94 209-209 0-115-94-209-209-209z m0 413c-113 0-204-91-204-204 0-113 91-204 204-204 113 0 204 91 204 204 0 113-91 204-204 204z m0-387c-101 0-183 82-183 183 0 101 82 183 183 183 101 0 183-82 183-183 0-101-82-183-183-183z m0 362c-98 0-179-81-179-179 0-99 81-179 179-179 99 0 179 80 179 179 0 98-80 179-179 179z"/>
<glyph glyph-name="tulisan-1" unicode="&#72;" d="M88 406l336 0 0-31-336 0z m0-90l336 0 0-31-336 0z m0-90l336 0 0-30-336 0z m0-89l336 0 0-31-336 0z"/>
<glyph glyph-name="timbangan-1" unicode="&#73;" d="M465 282l0 0c0 0 0 0 0 0 0 0 0 1 0 1 0 0 0 0 0 0 0 0 0 0 0 0 0 1 0 1 0 1 0 0 0 0 0 0 0 0 0 0 0 0 0 1 0 1 0 1l0 0c0 0 0 0 0 0l-59 143c0 1-1 1-1 2 5 3 8 9 8 16 0 10-9 19-20 19-10 0-19-8-19-18l-95-27c-6 10-18 15-30 12-7-2-12-7-16-13-2-4-3-9-3-13l-95-27c-4 5-10 8-16 8-11 0-20-9-20-20 0-6 3-12 7-15l-59-146c0 0 0 0 0 0l0 0c0 0 0 0 0 0 0 0 0 0 0 0 0-1 0-1 0-1 0 0 0 0 0 0 0 0 0 0 0 0 0-1 0-1 0-1 0 0 0 0 0 0 0 0 0 0 0 0l0 0c0 0 0 0 0 0 0-40 32-72 72-72 39 0 72 32 72 72 0 0 0 0 0 0l0 0c0 0 0 0 0 0 0 0 0 0 0 0 0 0 0 0 0 1 0 0 0 0 0 0 0 0-1 0-1 0 0 0 0 0 0 1 0 0 0 0 0 0 0 0 0 0 0 0l0 0c0 0 0 0 0 0l-59 144c0 1 0 1-1 1 5 4 8 9 8 15l95 27c1-1 3-3 4-4 0-1-1-2-1-2l0-268c-10 0-19-9-19-20l0-13-33 0c-11 0-19-9-19-20l0-13c0-3 2-6 6-6l170 0c4 0 7 3 7 6l0 13c0 11-9 20-20 20l-33 0 0 13c0 11-9 20-19 20l0 268c0 0 0 1-1 2 2 1 3 3 4 5 2 4 3 8 3 13l96 27c1-1 2-3 3-4l-59-145c0 0 0 0 0 0l0 0c0 0 0-1 0-1 0 0 0 0 0 0 0 0 0 0 0 0 0 0 0-1 0-1 0 0 0 0-1 0 0 0 0 0 0 0 0 0 0-1 0-1 0 0 0 0 0 0 0 0 0 0 0 0 0 0 0 0 0 0 1-40 33-72 72-72 40 0 72 32 72 72 0 0 0 0 0 0z m-72 170c4 0 7-3 7-6 0-4-3-7-7-7-3 0-6 3-6 7 0 3 3 6 6 6z m-148-39c1 3 4 5 7 6 2 0 3 0 4 0 6 0 11-3 13-9 1-3 0-7-2-10-1-3-4-5-7-6-7-2-15 2-17 9 0 0 0 0 0 0-1 3 0 7 2 10z m-126-39c3 0 6-3 6-7 0-3-3-6-6-6-4 0-7 3-7 6 0 4 3 7 7 7z m55-164l-3 0c-4 0-6-3-6-6 0-4 2-7 6-7l6 0c-3-29-28-52-58-52-31 0-55 23-59 52l113 0c4 0 6 3 6 7 0 3-2 6-6 6l-110 0 56 137c0 0 0-1 0-2z m108-111l0-20c0-3 3-6 7-6l39 0c4 0 7-3 7-7l0-6-157 0 0 6c0 4 3 7 6 7l46 0 0 26c0 4 3 7 6 7l40 0c3 0 6-3 6-7z m-32 20l0 262c2-1 4-1 6-1 2 0 4 0 7 1l0-262z m143 104c-30 0-55 23-58 53l113 0c3 0 6 2 6 6 0 4-3 7-6 7l-110 0 55 137c0-1 1-2 1-3l55-134-3 0c-4 0-7-3-7-7 0-4 3-6 7-6l6 0c-3-30-28-53-59-53z m-52-180l-170 0c-6 0-11 4-11 10l0 13c0 13 11 24 24 24l29 0 0 9c0 12 8 21 19 23l0 265c0 0 0 0 0 1 0 0 0 0 0 0l-90-25c-1-5-3-9-6-13l57-140 1 0 0-3c1-1 1-1 1-1l0-1c0-43-34-77-76-77-42 0-76 34-76 75l0 2c0 0 0 0 0 1l0 1 0 3 1 0 57 141c-4 4-6 10-6 16 0 13 11 24 24 24 6 0 13-3 17-8l90 26c0 4 1 8 4 12 4 7 10 12 18 15 12 3 25-2 32-12l90 26c2 11 12 19 23 19 14 0 24-10 24-23 0-7-2-13-7-17l60-147c-1-42-35-76-77-76-42 0-76 34-76 76l1 3c0 0 0 0 0 0l0 4 1 0 57 140c0 0 0 0 0 0l-90-25c0-5-1-9-3-12-1-2-2-3-3-4 0-1 0-1 0-1l0-265c11-2 20-11 20-23l0-9 28 0c13 0 24-11 24-24l0-13c0-6-5-10-11-10z m-157 39c-8 0-15-7-15-16l0-13c0-1 1-2 2-2l170 0c1 0 2 1 2 2l0 13c0 9-7 16-15 16l-37 0 0 17c0 9-7 15-15 15l-5 0 0 273 0 2 1 3c1 1 2 2 3 4 2 3 3 7 3 11l0 3 101 29 2-2c1-2 2-3 3-3l2-2-1-3-59-145 0-4c1-37 31-66 67-66 37 0 68 30 68 67l0 1-1 1 0 1-58 143-2 3 3 3c4 3 6 8 6 13 0 8-7 15-16 15-8 0-15-6-15-15l0-3-101-28-2 2c-5 9-16 13-25 10-6-1-10-5-13-10-2-3-3-7-3-11l0-3-101-29-2 2c-3 4-7 7-12 7-9 0-16-7-16-16 0-5 2-9 6-12l2-2-1-3-59-147c0-37 31-67 68-67 37 0 67 29 67 66l0 0 0 4-59 142-2 4 3 3c4 3 6 7 6 11l0 3 102 29 1-3c1-1 2-2 3-3l1-2 0-2 0-274-5 0c-8 0-15-6-15-15l0-17z m155-26l-166 0 0 10c0 6 5 11 11 11l42 0 0 22c0 6 5 11 10 11l40 0c6 0 10-5 10-11l0-20c0-1 1-2 3-2l39 0c6 0 11-5 11-11z m-157 8l148 0 0 2c0 2-1 3-2 3l-39 0c-6 0-11 4-11 10l0 20c0 1-1 2-2 2l-40 0c-1 0-2-1-2-2l0-30-50 0c-1 0-2-1-2-3z m85 50l-22 0 0 272 6-1c3-1 7-1 11 0l5 1z m-13 9l4 0 0 253c-1 0-3 0-4 0z m-135 18c-32 0-59 24-63 56l0 4 105 0c-1 1-1 2-1 3 0 0 0 1 1 2l-104 0 61 150c-6 1-10 5-10 11 0 6 5 11 11 11 6 0 10-5 10-11 0-4-2-8-6-10l0-10 55-134c3-1 6-5 6-9 0-3-1-5-3-7l0 0c-3-32-30-56-62-56z m-54 52c5-25 27-44 54-44 26 0 48 19 53 44z m4 21l99 0-49 122z m324 5c-32 0-59 24-62 56l-1 5 105 0c0 1 0 1 0 2 0 1 0 2 0 2l-104 0 61 151c-5 0-9 5-9 11 0 6 4 10 10 10 6 0 11-4 11-10 0-5-3-9-7-10l1-10 54-134c4-2 6-6 6-10 0-2-1-5-2-6l0-1c-4-32-30-56-63-56z m-53 52c5-25 27-44 53-44 27 0 49 19 54 44z m4 22l99 0-50 121z m-88 96c-8 0-14 5-17 13-1 4 0 9 2 13 2 4 6 7 10 8 9 3 19-3 22-12 1-4 0-9-2-13-2-4-6-7-10-8-2-1-3-1-5-1z m0 26c-1 0-2 0-2 0-3-1-5-2-6-4-1-2-1-5-1-7 2-5 7-8 11-6 3 0 5 2 6 4 1 2 1 5 1 7-1 4-5 6-9 6z"/>
<glyph glyph-name="pattern" unicode="&#74;" d="M452 174l-67 23 67 22c3 2 5 5 5 8 0 3-2 6-5 8l-67 22 67 23c3 1 5 4 5 8 0 3-2 6-5 7l-67 23 67 23c3 1 5 4 5 7 0 4-2 7-5 8l-189 65c-1 0-2 0-3 0 0 0-1 0-2 0l-190-65c-3-1-5-4-5-8 0-3 2-6 5-7l67-23-67-23c-3-1-5-4-5-7 0-4 2-7 5-8l67-23-67-22c-3-2-5-5-5-8 0-3 2-6 5-8l67-22-67-23c-3-1-5-4-5-8 0-3 2-6 5-7l189-65c2-1 4-1 5 0l190 65c3 1 5 4 5 7 0 4-2 7-5 8z m-357 174l165 57 2-1 163-56-165-56-1 0z m0-60l64 21 98-33c2-1 4-1 5 0l99 34 64-22-165-57-1 0z m0-61l64 22 98-34c2 0 4 0 5 0l99 34 64-22-165-57z m165-117l-165 56 64 22 98-34c2 0 4 0 5 0l99 34 64-22z"/>
<glyph glyph-name="kalender-6" unicode="&#75;" d="M447 115l-367 0c-13 0-24 11-24 24l0 234c0 13 11 24 24 24l367 0c13 0 23-11 23-24l0-234c0-13-10-24-23-24z m-367 267c-5 0-9-4-9-9l0-234c0-5 4-9 9-9l367 0c5 0 9 4 9 9l0 234c0 5-4 9-9 9z m-21-32l404 0 0-15-404 0z m321-161c-12 1-22 6-32 14l6 8c8-7 16-11 26-13l0 34c-20 5-28 12-28 26l0 1c0 13 11 24 28 24l0 8 9 0 0-8c10-1 18-5 25-11l-5-8c-7 6-14 9-21 10l0-33c21-5 29-13 29-26l0-1c0-14-11-24-28-25l0-13-9 0 0 13z m0 85c-11 0-18-7-18-15l0 0c0-8 4-13 18-16z m27-60l0 0c0 8-4 13-19 16l0-32c12 1 19 7 19 16z m-16-41l-14 0 0 14c-11 1-21 6-31 14l-2 2 10 12 2-2c7-6 14-10 22-11l0 28c-10 2-17 6-21 10-5 4-8 10-8 18l0 1c0 14 11 25 28 27l0 8 14 0 0-8c9-2 17-5 25-12l2-1-9-13-2 2c-5 4-10 7-16 9l0-28c10-3 17-6 21-10 6-5 8-11 8-18l0-1c0-15-11-26-29-28z m-8 5l3 0 0 14 2 0c16 1 27 10 27 22l0 1c0 12-8 19-27 23l-2 1 0 38 3 0c7-2 13-4 19-9l3 4c-8 5-14 8-23 8l-2 1 0 7-3 0 0-7-3 0c-7-1-14-3-19-7-4-4-7-9-7-15l0-1c0-12 8-19 27-23l2-1 0-39-3 1c-9 1-17 4-25 11l-3-3c9-7 18-11 28-12l3 0z m3 17l0 39 3-1c8-2 13-4 16-7 3-3 5-7 5-12l0 0c0-11-9-18-22-19z m5 32l0-26c8 1 13 6 13 13l0 0c0 6-2 10-13 13z m-8 12l-3 1c-15 4-21 9-21 19l0 0c0 10 9 18 21 18l3 0z m-5 32c-8-1-13-5-13-12l0 0c0-5 1-9 13-13z m-81 69l15 0 0-211-15 0z m-121-145l-50 0 25 22c17 15 24 23 24 37l0 0c0 16-12 27-30 27-16 0-25-7-34-20l8-6c8 11 15 17 26 17 10 0 19-7 19-18 0-10-6-17-20-30l-34-31 0-8 66 0z m3-13l-72 0 0 13 35 31c14 13 19 19 19 28 0 10-8 15-16 15-9 0-16-4-24-15l-1-2-12 8 1 3c9 12 18 21 36 21 9 0 18-3 23-8 6-6 10-13 10-22l0 0c0-15-8-24-25-39l-20-17 46 0z m-67 6l61 0 0 4-55 0 31 27c16 15 23 22 23 35l0 0c0 14-11 25-27 25-15 0-23-7-30-17l4-3c3 5 7 8 10 11 5 3 10 4 16 4 5 0 11-2 15-5 4-4 6-9 6-15 0-12-6-20-20-32l-34-30z m115 5c-12 0-21 5-28 14l-8-7c8-10 20-17 35-17 18 0 32 12 32 29l0 0c0 18-15 26-31 27l30 33 0 8-61 0 0-10 46 0-30-33 3-7 6 0c15 0 26-6 26-18l0 0c0-11-9-19-20-19z m-1-12c-19 0-31 9-37 18l-2 2 12 10 2-2c7-9 15-13 26-13 5 0 9 1 12 4 4 3 6 7 6 12l0 0c0 5-3 8-7 11-4 3-10 4-17 4l-8 0-4 10 27 31-43 0 0 15 66 0 0-12-27-30c7-1 14-4 18-7 7-5 11-13 11-22l0 0c0-9-4-17-10-23-7-5-15-8-25-8z m-31 19c6-7 16-14 31-14 8 0 16 3 21 7 5 5 8 12 8 19l0 0c0 8-2 13-8 17-5 4-12 7-20 7l-6 1 33 36 0 4-55 0 0-4 49 0-32-37 1-3 4 0c8 0 15-2 20-5 6-4 9-9 9-16l0 0c0-6-2-12-7-16-4-4-10-6-16-6-11 0-21 5-28 13z"/>
<glyph glyph-name="kalender-7" unicode="&#76;" d="M408 410l-44 0 0-15 44 0c5 0 9-4 9-9l0-47 11 0 0-15-11 0 0-219c0-5-4-9-9-9l-304 0c-4 0-8 4-8 9l0 219-4 0 0 15 4 0 0 47c0 5 4 9 8 9l43 0 0 15-43 0c-13 0-23-11-23-24l0-281c0-13 10-24 23-24l304 0c13 0 23 11 23 24l0 281c0 13-10 24-23 24z m-222 0l139 0 0-15-139 0z m151 21l15 0 0-6-15 0z m0-36l15 0 0-22-15 0z m0 30l15 0 0-15-15 0z m0-15l15 0 0-15-15 0z m-178 21l15 0 0-6-15 0z m0-6l15 0 0-15-15 0z m0-30l15 0 0-22-15 0z m0 15l15 0 0-15-15 0z m-63-71l321 0 0-15-321 0z m321 0l11 0 0-15-11 0z m-325 0l4 0 0-15-4 0z m72-77l187 0 0-16-187 0z m0-45l187 0 0-15-187 0z m0-44l187 0 0-15-187 0z"/>
<glyph glyph-name="kalender-8" unicode="&#77;" d="M408 410l-44 0 0-15 44 0c5 0 9-4 9-9l0-47 11 0 0-15-11 0 0-219c0-5-4-9-9-9l-304 0c-4 0-8 4-8 9l0 219-4 0 0 15 4 0 0 47c0 5 4 9 8 9l43 0 0 15-43 0c-13 0-23-11-23-24l0-281c0-13 10-24 23-24l304 0c13 0 23 11 23 24l0 281c0 13-10 24-23 24z m-222 0l139 0 0-15-139 0z m151 21l15 0 0-6-15 0z m0-36l15 0 0-22-15 0z m0 30l15 0 0-15-15 0z m0-15l15 0 0-15-15 0z m-178 21l15 0 0-6-15 0z m0-6l15 0 0-15-15 0z m0-30l15 0 0-22-15 0z m0 15l15 0 0-15-15 0z m-63-71l321 0 0-15-321 0z m321 0l11 0 0-15-11 0z m-325 0l4 0 0-15-4 0z m162-210c-21 0-42 9-57 24-15 15-24 35-24 57 0 22 9 42 24 57 15 16 36 24 57 24 22 0 42-8 58-24 15-15 23-35 23-57 0-22-8-42-23-57-16-15-36-24-58-24z m0 147c-17 0-34-7-46-19-13-13-20-29-20-47 0-18 7-34 20-47 12-12 29-19 46-19 18 0 35 7 47 19 13 13 19 29 19 47 0 18-6 34-19 47-12 12-29 19-47 19z m37-50c-1 1-2 1-3 0l-41-41-25 25c-1 1-3 1-4 0-1-1-1-3 0-4l27-26c0 0 0 0 0 0 0 0 0 0 0 0 1-1 3-1 4 0l42 43c1 1 1 2 0 3z m-44-52c-2 0-4 0-6 2 0 0 0 0 0 0l-26 26c-4 4-4 9 0 12 1 1 3 2 5 2 2 0 4-1 6-2l0 0 21-21 37 37c1 2 3 3 6 3 2 0 4-1 5-3 2-1 3-3 3-5 0-3-1-5-3-6l-43-43c-1-2-3-2-5-2z"/>
<glyph glyph-name="jam-3" unicode="&#78;" d="M256 85c-94 0-171 77-171 171 0 94 77 171 171 171 94 0 171-77 171-171 0-94-77-171-171-171z m0 332c-89 0-161-72-161-161 0-89 72-161 161-161 89 0 161 72 161 161 0 89-72 161-161 161z m0-334c-96 0-173 77-173 173 0 96 77 173 173 173 96 0 173-77 173-173 0-96-77-173-173-173z m0 341c-93 0-168-75-168-168 0-93 75-168 168-168 93 0 168 75 168 168 0 93-75 168-168 168z m0-332c-90 0-163 74-163 164 0 90 73 163 163 163 90 0 164-73 164-163 0-90-74-164-164-164z m0 322c-87 0-158-71-158-158 0-87 71-158 158-158 87 0 158 71 158 158 0 87-71 158-158 158z m-3-10l10 0 0-26-10 0z m13-29l-16 0 0 32 16 0z m-10 6l4 0 0 21-4 0z m-3-247l10 0 0-26-10 0z m13-29l-16 0 0 32 16 0z m-10 5l4 0 0 21-4 0z m124 151l26 0 0-10-26 0z m29-13l-32 0 0 16 32 0z m-26 6l21 0 0 4-21 0z m-273 7l26 0 0-10-26 0z m29-13l-32 0 0 16 32 0z m-27 6l21 0 0 4-21 0z m159 2c0-7-6-13-13-13-7 0-13 6-13 13 0 7 6 13 13 13 7 0 13-6 13-13z m-13-15c-9 0-15 6-15 15 0 8 6 15 15 15 8 0 15-7 15-15 0-9-7-15-15-15z m0 25c-6 0-10-5-10-10 0-6 4-10 10-10 5 0 10 4 10 10 0 5-5 10-10 10z m75-77l-80 66 0 112 10 0 0-108 76-63z m0-4l-83 68 0 117 16 0 0-109 77-64z m-77 71l77-63 2 3-75 62 0 106-4 0z"/>
<glyph glyph-name="kalender-9" unicode="&#79;" d="M408 410l-44 0 0-15 44 0c5 0 9-4 9-9l0-47 11 0 0-15-11 0 0-219c0-5-4-9-9-9l-304 0c-4 0-8 4-8 9l0 219-4 0 0 15 4 0 0 47c0 5 4 9 8 9l43 0 0 15-43 0c-13 0-23-11-23-24l0-281c0-13 10-24 23-24l304 0c13 0 23 11 23 24l0 281c0 13-10 24-23 24z m-222 0l139 0 0-15-139 0z m151 21l15 0 0-6-15 0z m0-36l15 0 0-22-15 0z m0 30l15 0 0-15-15 0z m0-15l15 0 0-15-15 0z m-178 21l15 0 0-6-15 0z m0-6l15 0 0-15-15 0z m0-30l15 0 0-22-15 0z m0 15l15 0 0-15-15 0z m-63-71l321 0 0-15-321 0z m321 0l11 0 0-15-11 0z m-325 0l4 0 0-15-4 0z m56-89l30 0c25 0 41-17 41-38l0-1c0-21-16-38-41-38l-30 0z m30-62c14 0 24 10 24 23l0 0c0 14-10 24-24 24l-13 0 0-47z m78 63l15 0 34-78-18 0-7 17-33 0-7-17-18 0z m18-46l-11 25-10-25z m52-2l-30 47 20 0 19-31 19 31 19 0-30-46 0-31-17 0z"/>
<glyph glyph-name="tulisan-2" unicode="&#80;" d="M196 305l187 0 0-15-187 0z m0-43l187 0 0-15-187 0z m0-43l187 0 0-14-187 0z m226-78l-332 0c-13 0-24 10-24 23l0 183c0 13 11 24 24 24l332 0c13 0 24-11 24-24l0-183c0-13-11-23-24-23z m-332 215c-5 0-9-4-9-9l0-183c0-4 4-8 9-8l332 0c5 0 9 4 9 8l0 183c0 5-4 9-9 9z m46-51l26 0 0-15-26 0z m0-43l26 0 0-15-26 0z m0-43l26 0 0-14-26 0z"/>
<glyph glyph-name="cabang" unicode="&#81;" d="M358 199c-20 0-37-10-48-24l-99 58c6 15 6 31 0 46l99 58c11-14 28-24 48-24 34 0 61 28 61 61 0 34-27 62-61 62-34 0-61-28-61-62 0-8 1-16 4-23l-99-58c-11 15-28 24-48 24-34 0-61-27-61-61 0-34 27-61 61-61 20 0 37 9 48 23l99-57c-3-7-4-15-4-23 0-34 27-62 61-62 34 0 61 28 61 62 0 33-27 61-61 61z m0 220c25 0 45-20 45-45 0-25-20-45-45-45-25 0-45 20-45 45 0 25 20 45 45 45z m-204-208c-25 0-45 20-45 45 0 25 20 45 45 45 25 0 45-20 45-45 0-25-20-45-45-45z m204-118c-25 0-45 20-45 45 0 24 20 44 45 44 25 0 45-20 45-44 0-25-20-45-45-45z"/>
<glyph glyph-name="chat" unicode="&#83;" d="M161 326l211 0 0-16-211 0z m0-48l211 0 0-17-211 0z m0-48l211 0 0-17-211 0z m255-89l-201 0-32-47-32 47-34 0c-14 0-26 12-26 27l0 206c0 15 12 27 26 27l299 0c15 0 27-12 27-27l0-206c0-15-12-27-27-27z m-299 243c-5 0-10-4-10-10l0-206c0-6 5-10 10-10l44 0 22-34 22 34 211 0c6 0 10 4 10 10l0 206c0 6-4 10-10 10z"/>
<glyph glyph-name="orang-5" unicode="&#84;" d="M465 256c0 115-94 209-209 209-115 0-209-94-209-209 0-63 29-120 74-159 0 0 1-1 2-1 36-31 82-49 134-49 50 0 96 18 132 48 2 0 4 2 5 3 43 39 71 95 71 158z m-398 0c0 104 85 189 189 189 104 0 190-85 190-189 0-51-21-97-54-132-5 25-21 68-70 96 11 14 18 32 18 51 0 46-38 83-83 83-46 0-84-37-84-83 0-19 7-37 18-51-49-28-65-71-70-96-34 34-54 81-54 132z m125 14c0 35 29 64 64 64 35 0 64-29 64-64 0-35-29-64-64-64-35 0-64 29-64 64z m-54-162c1 15 9 68 67 97 14-11 32-18 51-18 19 0 37 7 52 18 57-29 66-80 67-97-32-26-74-42-118-42-46 0-87 16-119 42z"/>
<glyph glyph-name="kaca-pembesar" unicode="&#85;" d="M457 121l-110 110c-3 2-6 4-9 4-4 0-7-2-9-4l-5-5c0 0-2-2-4 0l-17 18c-2 1-1 3 0 4 17 23 26 51 26 80 0 35-14 69-40 95-25 25-59 39-95 39-36 0-69-14-95-39-25-26-39-60-39-95 0-36 14-70 39-95 26-26 59-40 95-40 26 0 48 6 70 19 0 0 2 2 4 1 4-5 15-16 19-20 2-1 0-3 0-3l-5-5c-2-3-3-6-3-9 0-4 1-7 3-10l110-110c3-2 6-3 9-3 4 0 7 1 9 3l47 47c2 2 4 5 4 9 0 3-2 7-4 9z m-343 126c-22 22-33 50-33 81 0 30 11 59 33 80 21 21 50 33 80 33 31 0 59-12 81-33 21-21 33-50 33-80 0-31-12-59-33-81-22-21-50-33-81-33-30 0-59 12-80 33z m290-169c-2-2-4-2-6 1-16 15-74 74-96 95-1 2 0 3 0 3l6 5c5 5 5 14 0 19l-23 22c0 0-2 2-1 3 1 1 3 2 4 3 1 1 2-1 2-1l23-22c2-3 5-4 9-4 3 0 7 1 9 4l5 5c0 0 2 1 4-1 22-21 82-82 96-95 1-2 1-4-1-6-8-8-23-24-31-31z m-3-28c-4 0-8 2-11 5l-110 110c-3 3-4 6-4 11 0 4 1 8 4 11l5 4c0 0 0 0 0 0-2 3-5 6-9 10-4 4-8 7-10 10 0-1-1-1-1-1l0 0 0 0c-21-13-43-19-71-19-36 0-71 14-97 40-25 26-40 60-40 97 0 36 15 71 40 96 26 26 61 41 97 41 37 0 71-15 97-41 26-25 40-60 40-96 0-30-9-58-26-82 0 0-1 0-1 0 0 0 0 0 1 0l17-18 5 5c3 3 7 5 11 5 4 0 8-2 11-5l110-110c3-3 4-7 4-11 0-4-1-8-4-11l-47-46c-3-3-6-5-11-5z m-135 166c2 0 3-1 4-2 2-2 6-6 10-9 3-4 7-8 9-10 2-2 2-5 1-7l-1 0-5-5c-2-2-3-5-3-7 0-3 1-6 3-8l110-110c2-2 5-3 7-3 3 0 6 1 8 3l46 47c2 2 3 4 3 7 0 3-1 5-3 7l-110 110c-2 2-5 3-7 3-3 0-5-1-7-3l-5-5c-1 0-2-2-4-2-1 0-2 1-4 2l-17 18c-2 2-3 5-1 8 17 22 26 49 26 78 0 35-14 68-39 93-24 24-57 38-93 38-35 0-68-14-93-38-25-25-38-58-38-93 0-36 13-69 38-93 25-25 58-39 93-39 13 0 25 1 36 4 11 3 22 8 32 15 0 0 2 1 4 1z m136-142c-3 0-5 1-6 3l-27 26c-23 24-54 55-69 69-1 2-1 3-1 4 0 1 1 2 1 3l6 5c2 2 3 5 3 7 0 3-1 6-3 8l-23 22c0 1-2 2-2 4 0 1 1 2 1 3 1 1 3 2 4 3l0 0c1 1 2 1 3 1 1 0 3-1 3-2l23-22c2-2 4-3 7-3 3 0 5 1 7 3l5 5c0 0 2 1 4 1 1 0 2 0 4-2 18-18 64-63 86-86l9-9c2-2 3-4 3-5 0-1-1-3-3-5-8-8-23-23-31-31-1-2-3-2-4-2z m-97 102c14-15 45-46 68-69l27-26c1-2 2-2 2-2 0 0 0 0 0 1 8 7 24 23 31 31 1 0 1 1 1 1 0 0 0 1 0 1l-10 10c-22 22-68 67-86 85 0 1 0 1 0 1l-5-5c-3-3-7-5-11-5-4 0-8 2-11 5l-22 22c-1 0-1-1-2-1l23-23c2-2 4-6 4-11 0-4-2-8-4-11z m-111 35c-31 0-60 12-82 34-22 22-34 51-34 83 0 31 12 60 34 82 22 22 51 34 82 34 31 0 61-12 83-34 22-22 34-51 34-82 0-32-12-61-34-83-22-22-52-34-83-34z m0 228c-29 0-57-12-78-33-21-21-33-49-33-78 0-30 12-58 33-79 21-21 49-32 78-32 30 0 58 11 79 32 21 21 32 49 32 79 0 29-11 57-32 78-21 21-49 33-79 33z"/>
<glyph glyph-name="transfer" unicode="&#86;" d="M367 263l-68 68c-4 4-11 4-15 0-4-4-4-11 0-15l50-49-181 0c-6 0-11-5-11-11 0-6 5-11 11-11l181 0-50-49c-4-4-4-11 0-15 2-2 5-3 8-3 2 0 5 1 7 3l68 67c4 5 4 11 0 15z m-75-89c-4 0-8 2-10 4-3 3-5 6-5 10 0 4 2 8 5 10l43 44-172 0c-8 0-14 6-14 14 0 8 6 14 14 14l172 0-43 44c-3 2-5 6-5 10 0 3 2 7 5 10 5 5 14 5 20 0l67-68c6-6 6-15 0-20l-67-68c-3-2-7-4-10-4z m-139 89c-4 0-7-3-7-7 0-4 3-7 7-7l189 0-55-56c-2-1-3-3-3-5 0-2 1-3 3-5 2-3 7-2 10 0l67 68c3 3 3 7 0 10l-67 68c-3 2-8 2-10 0-2-2-3-3-3-5 0-2 1-4 3-5l55-56z m103 199c-114 0-206-92-206-206 0-114 92-207 206-207 114 0 207 93 207 207 0 114-93 206-207 206z m0-387c-100 0-181 81-181 181 0 100 81 181 181 181 100 0 181-81 181-181 0-100-81-181-181-181z m0-28c-115 0-209 94-209 209 0 115 94 209 209 209 115 0 209-94 209-209 0-115-94-209-209-209z m0 413c-113 0-204-91-204-204 0-113 91-204 204-204 113 0 204 91 204 204 0 113-91 204-204 204z m0-387c-101 0-183 82-183 183 0 101 82 183 183 183 101 0 183-82 183-183 0-101-82-183-183-183z m0 362c-98 0-179-81-179-179 0-99 81-179 179-179 99 0 179 80 179 179 0 98-80 179-179 179z m-111-187l68-67c4-5 11-5 15 0 4 4 4 10 0 15l-50 49 181 0c6 0 11 5 11 11 0 6-5 10-11 10l-181 0 50 50c4 4 4 11 0 15-2 2-5 3-7 3-3 0-6-1-8-3l-68-68c-4-4-4-11 0-15z m76 90c3 0 7-2 10-4 2-3 4-7 4-10 0-4-2-8-5-10l-43-44 172 0c8 0 14-6 14-14 0-8-6-14-14-14l-172 0 44-44c2-3 4-6 4-10 0-4-2-7-5-10-5-5-14-5-19 0l-68 68c-6 5-6 14 0 20l68 68c2 2 6 4 10 4z m138-89c4 0 7 3 7 7 0 4-3 7-7 7l-189 0 56 56c1 1 2 3 2 5 0 1-1 3-2 5-3 2-8 2-10 0l-68-68c-3-3-3-7 0-10l68-68c2-3 7-3 10 0 1 1 2 3 2 5 0 2-1 4-2 5l-56 56z"/>
<glyph glyph-name="centang-approval" unicode="&#87;" d="M378 377c-32 33-75 51-121 51-46 0-89-18-122-51-32-32-50-75-50-121 0-46 18-89 50-121 33-33 76-50 122-50 46 0 89 17 121 50 32 32 50 75 50 121 0 46-18 89-50 121z m-13-229c-29-29-67-45-108-45-41 0-80 16-109 45-29 29-45 67-45 108 0 41 16 80 45 108 29 29 68 45 109 45 41 0 79-16 108-45 29-28 45-67 45-108 0-41-16-79-45-108z m-13 164c-2 2-5 3-8 3-2 0-5-1-7-3l0 0-104-104-52 51c-2 2-4 3-7 3-3 0-5-1-7-3-4-4-4-11 0-15l58-58c0 0 0 0 0 0l0 0c2-2 5-3 7-3 3 0 6 1 8 3l112 111c2 2 3 5 3 8 0 3-1 5-3 7z m-4-11l-111-112c-3-2-6-2-9 0 0 0 0 0 0 0 0 0 0 0 0 0l-58 59c-2 2-2 6 0 8 2 2 6 2 8 0l55-54 107 107c2 2 6 2 8 0 3-2 3-6 0-8z m-8 8l-107-107-55 54c-2 2-6 2-8 0-2-2-2-6 0-8l58-59c0 0 0 0 0 0 0 0 0 0 0 0 3-2 6-2 9 0l111 112c3 2 3 6 0 8-2 2-6 2-8 0z"/>
<glyph glyph-name="delegasi-panah" unicode="&#88;" d="M392 395l-149 0c-3 0-5-1-7-3-2-2-3-4-3-7l0 0c0-2 1-5 3-7 1-2 4-3 7-3l121 0-228-227 0 125c0 2-1 5-2 7-2 1-5 2-7 2l-1 0c-2 0-5-1-6-2-2-2-3-5-3-7l0-149c0-6 4-10 10-10l149 0c2 0 4 1 6 3 2 2 3 4 3 7l0 0c0 2-1 5-2 7-2 1-5 3-7 3l-122 0 228 227 0-125c0-2 1-5 2-7 2-2 5-3 8-3l0 0c2 0 5 1 7 3 1 2 2 5 2 7l0 149c0 6-4 10-9 10z"/>
<glyph glyph-name="modul-1" unicode="&#89;" d="M388 105l-264 0c-14 0-26 11-26 25l0 252c0 14 12 25 26 25l264 0c14 0 26-11 26-25l0-252c0-14-12-25-26-25z m-264 286c-5 0-10-4-10-9l0-252c0-5 5-9 10-9l264 0c5 0 10 4 10 9l0 252c0 5-5 9-10 9z m116-212l-83 0 0 83 83 0z m-67 16l51 0 0 51-51 0z m181-16l-82 0 0 83 82 0z m-66 16l50 0 0 51-50 0z m-186 138l304 0 0-16-304 0z"/>
<glyph glyph-name="silang" unicode="&#90;" d="M402 402c-81 81-211 81-292 0-81-81-81-211 0-292 81-81 211-81 292 0 81 81 81 211 0 292z m-274-274c-70 71-70 185 0 256 71 70 185 70 256 0 70-71 70-185 0-256-71-70-185-70-256 0z m192 82l-46 46 46 46c5 5 5 13 0 18-5 5-13 5-18 0l-46-46-46 46c-5 5-13 5-18 0-5-5-5-13 0-18l46-46-46-46c-5-5-5-13 0-18 5-5 13-5 18 0l46 46 46-46c5-5 13-5 18 0 5 5 5 13 0 18z m-211-102c-82 82-82 214 0 295 81 82 213 82 295 0 81-81 81-213 0-295-82-81-214-81-295 0z m292 292c-80 80-210 80-289 0-80-79-80-209 0-289 79-79 209-79 289 0 79 80 79 210 0 289z m-274-273c-71 71-71 187 0 258 71 71 187 71 258 0 72-71 72-187 0-258-71-72-187-72-258 0z m255 255c-69 70-183 70-252 0-70-69-70-183 0-252 69-70 183-70 252 0 70 69 70 183 0 252z m-191-191c-6 5-6 15 0 21l44 44-44 44c-6 6-6 15 0 21 6 6 15 6 21 0l44-44 44 44c6 6 16 6 21 0 6-6 6-15 0-21l-44-44 44-44c6-6 6-16 0-21-5-6-15-6-21 0l-44 44-44-44c-6-6-15-6-21 0z m18 127c-4 5-11 5-15 0-5-4-5-11 0-15l47-47-47-47c-5-4-5-11 0-15 4-5 11-5 15 0l47 47 47-47c4-5 11-5 15 0 5 4 5 11 0 15l-47 47 47 47c5 4 5 11 0 15-4 5-11 5-15 0l-47-47z"/>
<glyph glyph-name="talenta-icon-assets-48-48" unicode="&#82;" d="M256 447c26 0 51-5 74-15 12-5 22-11 33-18 10-7 19-14 28-23 9-9 17-18 23-28 7-11 13-22 18-33 10-23 15-48 15-74 0-14-1-28-4-42-3-13-8-26-14-38-5-13-12-24-20-35-8-11-17-21-27-29l-1-1 0 0-3-3c-17-13-36-24-56-31-21-8-43-12-65-12-23 0-46 4-67 12-20 7-39 18-56 32l-1 2-1 0c-10 9-19 18-28 29-8 11-15 23-21 35-6 12-10 25-13 39-3 14-5 28-5 42 0 26 5 51 15 74 5 11 11 22 18 33 7 10 14 19 23 28 9 9 18 16 28 23 11 7 21 13 33 18 23 10 48 15 74 15m0 18c-115 0-209-94-209-209 0-63 29-120 74-159 0 0 1-1 2-1 36-31 82-49 134-49 50 0 96 18 132 48 2 0 4 2 5 3 43 39 71 95 71 158 0 115-94 209-209 209z m201-204l-57 27 1 0c1 0 3 2 3 3 1 2 1 4 0 5l-23 59c-1 3-4 4-7 4 0 0 0 0-1 0l-230 0c0 0-1 0-1 0-3 0-6-1-7-4l-23-59c-1-1-1-3 0-5 1-1 2-3 4-3l0 0-62-31c-4-1-5-5-3-9 1-2 3-3 6-3 1 0 2 0 3 1l72 35c0 0 0 0 0 0l73-27c0-1 1-1 2-1 3 0 5 2 6 5l8 19 9-19c1-3 3-4 6-4l1 0-26-113c0-2 1-5 3-6l40-33c1-1 3-1 4-1 1 0 3 0 4 1l41 33c2 1 3 3 2 6l-25 113c3 0 4 2 5 4l10 21 8-21c1-3 4-5 6-5 1 0 2 0 3 1l72 27c0 0 0 0 0 0l67-32c1-1 2-1 3-1 2 0 4 2 6 4 1 3 0 7-3 9z m-173 63c0 0 0 0 0 0l-51 0c0 0 0 0-1 0l-55 22 162 0z m-81-56l-77 30 19 46 77-30z m55-153l-33 28 24 110 20 0 23-110z m17 152l-35 0-12 27 6 17 48 0 6-15z m20 47l76 30 19-46-77-30z m-37-215c-2 0-3 0-5 1l0 0-40 33c-3 2-4 5-4 8l0 0 25 111c-3 0-5 2-6 5l-7 15-6-15c-1-4-4-6-8-6-1 0-2 1-3 1l-72 27-71-35c-2-1-3-1-4-1-4 0-7 2-8 5-2 4-1 9 4 11l59 29c-1 1-2 2-2 2-1 3-1 5 0 7l23 58c1 4 5 6 8 6 0 0 1 0 1 0 0 0 1 0 1 0l230 0c1 0 1 0 1 0 1 0 1 0 1 0 4 0 7-2 8-6l23-58c1-2 1-4 0-7 0 0-1-1-1-2l53-25c2-2 3-3 4-5 1-3 0-5-1-7-1-3-4-5-7-5-2 0-3 1-4 1l-66 32-72-27c-1 0-2-1-3-1-3 0-6 2-8 6l-6 16-8-16c-1-2-2-4-4-5l24-111 0 0c1-3-1-6-3-8l-41-33 0 0c-1-1-3-1-5-1z m-2 5c0-1 1-1 2-1 1 0 2 0 3 1l40 32 0 0c2 1 3 3 2 5l-25 114 2 1c2 0 3 1 3 2l12 26 10-26c1-1 2-3 4-3 1 0 1 0 2 1l73 28 1-1c0 0 0 0 0 0l67-32c0-1 1-1 2-1 1 0 3 1 4 3 0 1 0 2 0 3 0 1-1 2-2 3l-61 29 5 2c1 0 2 1 2 2 1 1 1 2 1 4l-24 58c0 2-2 3-4 3 0 0 0 0-1 0l0 0 0 0c0 0-1 0-1 0l-230 0c0 0-1 0-1 0l0 0 0 0c-1 0-1 0-1 0-2 0-3-1-4-3l-23-58c-1-2-1-3 0-4 0-1 1-2 2-2l0 0 5-2-66-32c-3-2-4-4-2-7 0-1 2-2 4-2 0 0 1 0 2 0l72 36 1 1 73-28c1-1 1-1 2-1 2 0 4 2 4 3l10 24 11-24c0-1 2-2 4-2l3 0-26-115c0-2 1-4 2-5l0 0z m2 9l-36 30 25 112 24 0 23-112z m-31 31l31-26 32 26-22 107-17 0z m49 121l-37 0-14 29 8 19 50 0 7-17z m-35 4l33 0 12 27-6 13-44 0-6-15z m71-3l-20 50 81 30 19-49z m-15 47l17-42 73 28-17 42z m-93-47l-80 31 20 49 80-30z m-75 33l73-28 17 42-73 28z m155 23l-52 0 0 1-66 25 184 0z m-51 4l50 0 45 18-140 0z"/>
<glyph glyph-name="laptop-ess-setting" unicode="&#48;" d="M405 419l-298 0c-4 0-8-4-8-8l0-167c0-5 4-8 8-8l298 0c5 0 8 3 8 8l0 167c0 4-3 8-8 8z m-7-168l-284 0 0 153 284 0z m41-32l0 197c0 16-13 29-29 29l-308 0c-16 0-29-13-29-29l0-197 0-1-25-110c0-1 0-1 0-2l0-31c0-4 3-8 7-8l402 0c4 0 8 4 8 8l0 31c0 1-1 1-1 2z m-351 197c0 8 6 14 14 14l308 0c8 0 14-6 14-14l0-191-336 0z m-1-206l338 0 22-95-1 0-2 0 0 0-376 0 0 0-2 0-1 0z m362-128l-386 0 0 17 386 0z m-38 117l-310 0c-3 0-6-2-7-5l-9-41c-1-3 0-5 1-7 1-2 4-3 6-3l328 0c3 0 5 1 6 3 1 2 2 4 1 7l-9 41c-1 3-4 5-7 5z m-310-41l6 26 298 0 6-26z"/>
</font>
</defs>
</svg>
